<?xml version="1.0" encoding="UTF-8"?>
<svg version="1.1" xmlns="http://www.w3.org/2000/svg" width="1024" height="1024">
<path d="M0 0 C34.65 0 69.3 0 105 0 C105 0.66 105 1.32 105 2 C106.65 2 108.3 2 110 2 C110 2.66 110 3.32 110 4 C111.32 4 112.64 4 114 4 C114 4.66 114 5.32 114 6 C114.66 6 115.32 6 116 6 C116 6.66 116 7.32 116 8 C116.99 8 117.98 8 119 8 C119 8.66 119 9.32 119 10 C119.99 10 120.98 10 122 10 C122 10.66 122 11.32 122 12 C122.66 12 123.32 12 124 12 C124.33 13.32 124.66 14.64 125 16 C125.66 16 126.32 16 127 16 C127.33 17.32 127.66 18.64 128 20 C128.66 20 129.32 20 130 20 C130.99 22.97 130.99 22.97 132 26 C132.66 26 133.32 26 134 26 C139.92388039 37.03585839 144.39134359 48.01438344 148 60 C148.33427002 61.07024414 148.33427002 61.07024414 148.67529297 62.16210938 C154.31369279 80.27458846 157.01031264 99.17012359 159 118 C159.08491699 118.77891602 159.16983398 119.55783203 159.25732422 120.36035156 C160.42645068 131.28206462 161.16148674 142.18117311 161.52416992 153.15917969 C161.56581614 154.38158733 161.60746237 155.60399498 161.6503706 156.86344528 C162.05150336 168.97501359 162.34555808 181.08673187 162.55078125 193.203125 C162.57159571 194.41997231 162.59241016 195.63681961 162.61385536 196.89054108 C163.29935745 238.66670419 163.18739748 280.45276481 163.18511117 322.23319292 C163.18541554 330.40417407 163.19361658 338.57512231 163.20581055 346.74609375 C163.33685796 436.69225137 163.33685796 436.69225137 162.11328125 475.078125 C162.07433432 476.32934898 162.03538738 477.58057297 161.99526024 478.86971283 C161.3315717 499.34349012 160.18044093 519.84349723 157.1875 540.125 C157.01935791 541.2809668 156.85121582 542.43693359 156.67797852 543.62792969 C154.59766882 557.37820025 152.02949635 571.00713442 147 584 C146.52841616 585.94921321 146.05701574 587.89851724 145.6015625 589.8515625 C144.65045046 593.24839121 143.27221785 596.45678184 141.90234375 599.703125 C141.08121426 601.7932728 140.4869638 603.811173 140 606 C139.34 606 138.68 606 138 606 C138 607.32 138 608.64 138 610 C137.34 610 136.68 610 136 610 C135.71125 610.9075 135.4225 611.815 135.125 612.75 C134.23468224 615.32202908 133.28505587 617.61346766 132 620 C131.34 620 130.68 620 130 620 C129.34 621.98 128.68 623.96 128 626 C127.34 626 126.68 626 126 626 C126 626.66 126 627.32 126 628 C125.34 628 124.68 628 124 628 C124 628.66 124 629.32 124 630 C123.34 630 122.68 630 122 630 C122 630.66 122 631.32 122 632 C121.34 632 120.68 632 120 632 C120 632.66 120 633.32 120 634 C119.34 634 118.68 634 118 634 C118 634.66 118 635.32 118 636 C117.01 636 116.02 636 115 636 C115 636.66 115 637.32 115 638 C114.01 638 113.02 638 112 638 C112 638.66 112 639.32 112 640 C110.02 640 108.04 640 106 640 C106 640.66 106 641.32 106 642 C103.36 642 100.72 642 98 642 C98 642.66 98 643.32 98 644 C67.64 644 37.28 644 6 644 C6 643.34 6 642.68 6 642 C3.36 642 0.72 642 -2 642 C-2 641.34 -2 640.68 -2 640 C-3.98 640 -5.96 640 -8 640 C-8 639.34 -8 638.68 -8 638 C-8.99 638 -9.98 638 -11 638 C-11 637.34 -11 636.68 -11 636 C-11.99 636 -12.98 636 -14 636 C-14 635.34 -14 634.68 -14 634 C-14.66 634 -15.32 634 -16 634 C-16 633.34 -16 632.68 -16 632 C-16.66 632 -17.32 632 -18 632 C-18 631.34 -18 630.68 -18 630 C-18.66 630 -19.32 630 -20 630 C-20 629.34 -20 628.68 -20 628 C-20.66 628 -21.32 628 -22 628 C-22 627.34 -22 626.68 -22 626 C-22.66 626 -23.32 626 -24 626 C-24 625.34 -24 624.68 -24 624 C-24.66 624 -25.32 624 -26 624 C-26 622.68 -26 621.36 -26 620 C-26.66 620 -27.32 620 -28 620 C-34.96723882 607.16172938 -40.26053905 594.43004123 -44.30224609 580.39453125 C-44.89293013 578.36743922 -45.52939544 576.35377366 -46.17578125 574.34375 C-49.4210275 564.01910555 -50.94613785 553.36009435 -52.5859375 542.6875 C-52.92005134 540.51891207 -53.27003722 538.35277298 -53.625 536.1875 C-58.20878844 506.96584867 -58.15828223 477.05024823 -58.13072467 447.5519104 C-58.12841556 443.87622915 -58.13197699 440.20055216 -58.13470459 436.52487183 C-58.13910413 429.36215713 -58.13821191 422.19945303 -58.13529195 415.03673795 C-58.13301404 409.20237552 -58.13273562 403.36801601 -58.13381577 397.53365326 C-58.133969 396.69657714 -58.13412223 395.85950103 -58.13428011 394.99705897 C-58.1345999 393.2953888 -58.13492412 391.59371862 -58.1352527 389.89204845 C-58.13809064 374.00953148 -58.13484744 358.12702032 -58.12945233 342.2445043 C-58.12498914 328.6870885 -58.12575953 315.12968127 -58.13037109 301.57226562 C-58.13575254 285.74461246 -58.13781268 269.91696436 -58.13475883 254.08931041 C-58.13444036 252.39341021 -58.13412599 250.69751 -58.13381577 249.0016098 C-58.13366149 248.1676831 -58.13350721 247.33375641 -58.13334826 246.4745592 C-58.13249352 240.66542397 -58.13392329 234.85629201 -58.13629532 229.04715729 C-58.13913361 221.94134814 -58.13827195 214.83555 -58.13301457 207.72974208 C-58.13043038 204.12086384 -58.12927964 200.51200377 -58.13266373 196.90312576 C-58.1543169 171.63925121 -58.12219064 146.26033116 -55.3125 121.125 C-55.22896271 120.34846069 -55.14542542 119.57192139 -55.05935669 118.77185059 C-52.92257847 99.07459976 -50.19327309 78.86608787 -44 60 C-43.74275146 59.20174805 -43.48550293 58.40349609 -43.22045898 57.58105469 C-39.62001544 46.57829295 -35.54298192 36.17617349 -30 26 C-29.34 26 -28.68 26 -28 26 C-28 24.68 -28 23.36 -28 22 C-27.34 22 -26.68 22 -26 22 C-26 21.34 -26 20.68 -26 20 C-25.34 20 -24.68 20 -24 20 C-23.67 18.68 -23.34 17.36 -23 16 C-22.34 16 -21.68 16 -21 16 C-20.67 14.68 -20.34 13.36 -20 12 C-19.34 12 -18.68 12 -18 12 C-18 11.34 -18 10.68 -18 10 C-17.34 10 -16.68 10 -16 10 C-16 9.34 -16 8.68 -16 8 C-15.01 8 -14.02 8 -13 8 C-13 7.34 -13 6.68 -13 6 C-12.01 6 -11.02 6 -10 6 C-10 5.34 -10 4.68 -10 4 C-8.68 4 -7.36 4 -6 4 C-6 3.34 -6 2.68 -6 2 C-4.02 2 -2.04 2 0 2 C0 1.34 0 0.68 0 0 Z M33 144 C33 144.66 33 145.32 33 146 C31.35 146 29.7 146 28 146 C28 146.66 28 147.32 28 148 C27.01 148 26.02 148 25 148 C25 148.66 25 149.32 25 150 C24.01 150 23.02 150 22 150 C22 150.66 22 151.32 22 152 C21.34 152 20.68 152 20 152 C20 152.66 20 153.32 20 154 C19.34 154 18.68 154 18 154 C18 154.66 18 155.32 18 156 C17.34 156 16.68 156 16 156 C16 156.66 16 157.32 16 158 C15.34 158 14.68 158 14 158 C13.67 159.32 13.34 160.64 13 162 C12.34 162 11.68 162 11 162 C10.67 163.32 10.34 164.64 10 166 C9.34 166 8.68 166 8 166 C6.03502054 169.87166423 4.07920714 173.74788881 2.125 177.625 C1.56941406 178.71941406 1.01382813 179.81382812 0.44140625 180.94140625 C-0.09355469 182.00488281 -0.62851562 183.06835938 -1.1796875 184.1640625 C-1.67194824 185.13811035 -2.16420898 186.1121582 -2.67138672 187.11572266 C-4.72179028 191.5669295 -6 195.06736425 -6 200 C-6.66 200 -7.32 200 -8 200 C-8.15855469 200.65742188 -8.31710937 201.31484375 -8.48046875 201.9921875 C-9.7876929 207.32219534 -11.17554234 212.60175785 -12.74609375 217.86083984 C-16.61195359 231.01016591 -18.82458609 244.48399949 -21 258 C-21.17096191 259.00998047 -21.34192383 260.01996094 -21.51806641 261.06054688 C-24.68729372 281.11894761 -25.33631124 301.44150274 -25.26074219 321.71435547 C-25.24997996 325.13136426 -25.26074762 328.54785018 -25.2734375 331.96484375 C-25.28659449 351.1661352 -24.40256801 370.33046519 -20.9375 389.25 C-20.76412109 390.25289062 -20.59074219 391.25578125 -20.41210938 392.2890625 C-19.57967719 397.18762721 -19.57967719 397.18762721 -18.45410156 402.02294922 C-14.35242709 419.88066959 -18.960836 442.14983433 -21.81689453 459.99560547 C-23.687305 471.93454662 -24.78473903 483.9802484 -26 496 C-25.01 496 -24.02 496 -23 496 C-22.505 494.02 -22.505 494.02 -22 492 C-21.34 492 -20.68 492 -20 492 C-20 490.68 -20 489.36 -20 488 C-19.34 488 -18.68 488 -18 488 C-18 486.68 -18 485.36 -18 484 C-17.34 484 -16.68 484 -16 484 C-16 482.68 -16 481.36 -16 480 C-15.34 480 -14.68 480 -14 480 C-13.32845067 478.71086513 -12.66291141 477.41859796 -12 476.125 C-11.443125 475.04605469 -11.443125 475.04605469 -10.875 473.9453125 C-9.86326254 472.05151023 -9.86326254 472.05151023 -10 470 C-9.34 470 -8.68 470 -8 470 C-8 469.34 -8 468.68 -8 468 C-7.34 468 -6.68 468 -6 468 C-6 467.34 -6 466.68 -6 466 C-4.02 466 -2.04 466 0 466 C0 466.66 0 467.32 0 468 C0.66 468 1.32 468 2 468 C2 468.66 2 469.32 2 470 C2.66 470 3.32 470 4 470 C4 470.66 4 471.32 4 472 C4.66 472 5.32 472 6 472 C6 472.66 6 473.32 6 474 C6.99 474 7.98 474 9 474 C9 474.66 9 475.32 9 476 C13.95 476 18.9 476 24 476 C24 475.34 24 474.68 24 474 C24.66 474 25.32 474 26 474 C26 473.34 26 472.68 26 472 C26.99 472 27.98 472 29 472 C29.33 470.68 29.66 469.36 30 468 C30.66 468 31.32 468 32 468 C32 467.34 32 466.68 32 466 C32.66 466 33.32 466 34 466 C34.66 464.02 35.32 462.04 36 460 C36.66 460 37.32 460 38 460 C38 458.68 38 457.36 38 456 C38.66 456 39.32 456 40 456 C45.4085975 445.8318367 49.03887634 435.59052015 52.19140625 424.546875 C52.86075377 422.438592 53.64821598 420.3682243 54.46484375 418.3125 C56.20701469 413.71750403 57.1164468 409.07232335 58 404.25 C59.04906046 398.74681411 60.11391664 393.29012315 61.5625 387.875 C63.04710561 382.19476986 63.9972392 376.46172854 64.91040039 370.66748047 C65.49646856 366.95613192 66.13107931 363.2675735 66.8828125 359.5859375 C72.35967051 332.62334226 76.38568859 305.44339937 79.73590088 278.14501953 C80.19723363 274.3980636 80.66752994 270.65222881 81.13671875 266.90625 C81.3043188 265.56575998 81.47188456 264.22526568 81.6394043 262.88476562 C81.75840088 261.93279297 81.87739746 260.98082031 82 260 C82.99 260 83.98 260 85 260 C84.93941406 260.95358398 84.87882812 261.90716797 84.81640625 262.88964844 C83.08534288 291.1310904 82.79952643 319.33640316 82.81152344 347.62129211 C82.81250069 350.50204653 82.81152543 353.38279557 82.81030273 356.2635498 C82.80935066 360.86122095 82.81499794 365.45883846 82.82623863 370.05649567 C82.83006642 371.77442418 82.83248394 373.49235648 82.83341408 375.210289 C82.83555525 377.58620183 82.84419944 379.96200209 82.85473633 382.33789062 C82.85427811 383.02960232 82.85381989 383.72131401 82.85334778 384.43398666 C82.87938761 388.38854818 83.24423653 392.11878709 84 396 C84.66 396 85.32 396 86 396 C86.33 397.32 86.66 398.64 87 400 C87.99 400 88.98 400 90 400 C91.10593527 394.6820985 92.12499978 389.36111248 93 384 C93.735736 379.49361701 94.58245874 375.02620799 95.50390625 370.5546875 C96.04793528 367.75315219 96.49448213 364.94420461 96.9375 362.125 C97.5850081 358.13877828 98.40248914 354.27785343 99.4375 350.375 C100.74645832 345.36168962 101.63721903 340.36206506 102.4375 335.25 C103.45005719 328.82240482 104.77791159 322.62152599 106.44677734 316.33007812 C107.95080156 310.51965979 109.02582481 304.6597944 110.0625 298.75 C111.41047029 291.07029733 112.95760364 283.52979863 115 276 C115.33606028 274.62566394 115.66961275 273.25071086 116 271.875 C116.74873584 268.82929488 117.67340062 265.86319992 118.625 262.875 C119.77377122 259.13427764 120.31152962 255.94604182 120 252 C120.99 252 121.98 252 123 252 C122.87230225 252.8235498 122.74460449 253.64709961 122.61303711 254.49560547 C121.34420262 262.97542233 120.43974175 271.44110651 119.73849487 279.98565674 C118.78717978 291.5495705 117.71409003 303.09189312 116.4375 314.625 C107.15290297 380.95128184 107.15290297 380.95128184 116 446 C116.66 446 117.32 446 118 446 C118.33 447.32 118.66 448.64 119 450 C121.31 450 123.62 450 126 450 C126 449.34 126 448.68 126 448 C126.66 448 127.32 448 128 448 C132.56081821 440.20317889 132.56081821 440.20317889 133.625 431.625 C133.41875 431.08875 133.2125 430.5525 133 430 C133 430.66 133 431.32 133 432 C132.34 432 131.68 432 131 432 C131 432.66 131 433.32 131 434 C129.02 434 127.04 434 125 434 C121.13416264 422.88078106 121.5765524 411.74556065 121.6875 400.125 C121.69819037 398.05045588 121.7088509 395.97591161 121.71948242 393.90136719 C121.83734582 377.87006232 122.57904931 361.97182714 124 346 C124.17233445 343.98976062 124.34465779 341.97952025 124.51649475 339.96923828 C125.00247036 334.29892848 125.50319238 328.63010438 126.0186615 322.96240234 C126.63077802 316.23002515 127.21291376 309.49629875 127.75390625 302.7578125 C129.08551441 286.20078446 130.62406667 269.71167023 132.62060547 253.21875 C133.45581098 246.13293952 134.18880522 239.03567154 134.9387207 231.94042969 C135.48343819 226.79631982 136.03293435 221.65362901 136.6328125 216.515625 C136.72747803 215.69900391 136.82214355 214.88238281 136.91967773 214.04101562 C137.08975597 212.58612581 137.26333822 211.131638 137.44165039 209.67773438 C137.97689978 205.08163391 138.06670483 200.61802692 138 196 C137.34 196 136.68 196 136 196 C136 195.34 136 194.68 136 194 C134.02 194 132.04 194 130 194 C127.03080499 201.12606802 125.28402637 208.51413082 123.484375 215.99804688 C122.67648981 219.33708849 121.83670437 222.66808672 121 226 C120.53980469 227.84078125 120.53980469 227.84078125 120.0703125 229.71875 C115.9921875 246.03125 115.9921875 246.03125 115.49511719 248.01904297 C115.16473275 249.34090655 114.83465517 250.66284687 114.50488281 251.98486328 C113.65370506 255.3954272 112.79667445 258.80435538 111.9296875 262.2109375 C109.77936664 270.68183858 107.88231695 279.14218599 106.3203125 287.7421875 C106.195354 288.4228125 106.07039551 289.1034375 105.94165039 289.8046875 C105.58314928 291.76224671 105.23083789 293.72093656 104.87890625 295.6796875 C104.23863298 299.0057824 103.44088663 302.27336783 102.6015625 305.5546875 C100.9421837 312.09244457 99.54036885 318.67119103 98.21020508 325.28320312 C97.80980135 327.26334581 97.39812605 329.24094967 96.98632812 331.21875 C95.70101024 337.5841338 94.62893073 343.50216485 95 350 C94.01 350 93.02 350 92 350 C92.05986084 348.87303711 92.11972168 347.74607422 92.18139648 346.58496094 C93.11646934 328.03837933 93.53447244 309.47737959 93.99578857 290.91442871 C94.08528457 287.33999299 94.17738385 283.76562625 94.26950932 280.19125748 C94.35887487 276.71497081 94.44693441 273.23865203 94.53457451 269.76232147 C94.57611363 268.11825495 94.61797171 266.47419644 94.66017342 264.83014679 C94.97774869 252.40330235 95.16085363 240.14932251 94.125 227.75 C94.04636719 226.70070313 93.96773437 225.65140625 93.88671875 224.5703125 C93.46426748 219.4359048 92.97668867 214.81714045 91 210 C90.34 210 89.68 210 89 210 C89 209.34 89 208.68 89 208 C87.35 208 85.7 208 84 208 C84 208.66 84 209.32 84 210 C82.68 210 81.36 210 80 210 C79.505 211.98 79.505 211.98 79 214 C78.34 214 77.68 214 77 214 C74.5943192 217.94075703 74.5943192 217.94075703 74.3125 222.375 C74.539375 222.91125 74.76625 223.4475 75 224 C76.65 224 78.3 224 80 224 C80.91703137 230.66836539 80.97821014 236.61064867 79.9375 243.25 C79.80609619 244.14895996 79.67469238 245.04791992 79.53930664 245.97412109 C79.04295846 249.31882791 78.52266459 252.65930215 78 256 C77.76547561 257.51137006 77.53111003 259.02276476 77.296875 260.53417969 C75.56435532 271.69474332 73.80078092 282.85024656 72 294 C71.8158252 295.14307617 71.63165039 296.28615234 71.44189453 297.46386719 C69.5276865 309.16574767 66.95495241 320.65839308 64.2109375 332.19140625 C62.95627748 337.54588967 61.8159169 342.87275199 60.94921875 348.3046875 C60.18907174 353.06478589 59.16575204 357.62708929 57.8125 362.25 C57.60181885 362.98814941 57.3911377 363.72629883 57.17407227 364.48681641 C56.71012258 366.10640446 56.24278831 367.72502595 55.77246094 369.34277344 C54.92732704 372.24999131 54.09256759 375.16009843 53.2578125 378.0703125 C49.23466232 392.04398183 45.20056256 405.71757537 39.171875 418.96875 C37.75960705 422.08016854 37.75960705 422.08016854 38 426 C37.34 426 36.68 426 36 426 C35.34 428.64 34.68 431.28 34 434 C33.34 434 32.68 434 32 434 C32 435.32 32 436.64 32 438 C31.34 438 30.68 438 30 438 C29.34 439.98 28.68 441.96 28 444 C27.34 444 26.68 444 26 444 C25.67 445.32 25.34 446.64 25 448 C24.34 448 23.68 448 23 448 C22.67 449.32 22.34 450.64 22 452 C21.01 452 20.02 452 19 452 C19 452.66 19 453.32 19 454 C18.01 454 17.02 454 16 454 C16 454.66 16 455.32 16 456 C12.7 456 9.4 456 6 456 C6 455.34 6 454.68 6 454 C5.34 454 4.68 454 4 454 C4 453.34 4 452.68 4 452 C3.34 452 2.68 452 2 452 C-1.83225514 440.58915958 -4.7008815 430.10070309 -5 418 C-5.02835937 416.91460938 -5.05671875 415.82921875 -5.0859375 414.7109375 C-5.32163748 394.58215915 -3.56065185 374.59971791 -0.11474609 354.78466797 C0.84004706 349.20666587 1.6047652 343.62211581 2.25 338 C2.34216797 337.22785156 2.43433594 336.45570313 2.52929688 335.66015625 C3.08814675 331.71685354 3.08814675 331.71685354 2 328 C1.34 328 0.68 328 0 328 C-0.2475 327.21625 -0.495 326.4325 -0.75 325.625 C-1.43554107 323.6369309 -2.14990261 321.65516474 -2.98828125 319.7265625 C-3.52001953 318.50066406 -3.52001953 318.50066406 -4.0625 317.25 C-4.57490234 316.11304688 -4.57490234 316.11304688 -5.09765625 314.953125 C-7.77089111 306.20435636 -7.18630079 296.66650458 -7.18530273 287.59814453 C-7.18747543 285.3998638 -7.2056552 283.20209785 -7.22460938 281.00390625 C-7.26376634 271.1731 -6.45072137 261.72647309 -5 252 C-4.80337769 250.62448975 -4.80337769 250.62448975 -4.6027832 249.22119141 C-3.13773952 239.27037688 -1.14843199 229.89689742 2.30078125 220.4296875 C2.52910645 219.80094727 2.75743164 219.17220703 2.99267578 218.52441406 C3.65531986 216.71296961 4.3331414 214.9070987 5.01171875 213.1015625 C6.20239992 209.90733519 6.20239992 209.90733519 6 206 C6.66 206 7.32 206 8 206 C8.24234375 205.3709375 8.4846875 204.741875 8.734375 204.09375 C10.41526023 199.80102771 12.13908647 195.60120343 14.25 191.5 C16.1490712 188.3540441 16.1490712 188.3540441 16 186 C16.66 186 17.32 186 18 186 C20.2013866 182.19572508 20.2013866 182.19572508 21 178 C21.66 178 22.32 178 23 178 C23.33 176.68 23.66 175.36 24 174 C24.66 174 25.32 174 26 174 C26 173.34 26 172.68 26 172 C26.66 172 27.32 172 28 172 C28 171.34 28 170.68 28 170 C28.99 170 29.98 170 31 170 C31 169.34 31 168.68 31 168 C31.99 168 32.98 168 34 168 C34 167.34 34 166.68 34 166 C35.32 166 36.64 166 38 166 C38 165.34 38 164.68 38 164 C40.31 164 42.62 164 45 164 C45 164.66 45 165.32 45 166 C46.32 166 47.64 166 49 166 C49 166.66 49 167.32 49 168 C49.66 168 50.32 168 51 168 C51.495 169.98 51.495 169.98 52 172 C52.66 172 53.32 172 54 172 C54.71463556 174.38211853 55.42824555 176.76447555 56.13671875 179.1484375 C56.68250868 180.951273 57.24546706 182.74907788 57.83203125 184.5390625 C58.09371094 185.35117187 58.35539063 186.16328125 58.625 187 C58.86476563 187.721875 59.10453125 188.44375 59.3515625 189.1875 C61.35285121 197.86778839 61.15731966 206.79736855 61.13037109 215.65722656 C61.12504492 217.73249742 61.13032878 219.80754847 61.13671875 221.8828125 C61.14501037 234.4299934 60.51631565 246.7758675 58.1875 259.125 C58.01226807 260.07294434 57.83703613 261.02088867 57.65649414 261.99755859 C56.5111493 267.95580498 55.0458575 273.62897114 52.9375 279.328125 C51.89087035 282.31101951 51.15800053 285.29786231 50.4375 288.375 C49.42897131 292.61968668 48.03371255 296.1262618 46 300 C46 301.32 46 302.64 46 304 C45.34 304 44.68 304 44 304 C43.01 307.96 43.01 307.96 42 312 C41.34 312 40.68 312 40 312 C40 313.32 40 314.64 40 316 C39.34 316 38.68 316 38 316 C37.34 317.98 36.68 319.96 36 322 C35.34 322 34.68 322 34 322 C34 322.66 34 323.32 34 324 C33.34 324 32.68 324 32 324 C32 324.66 32 325.32 32 326 C31.34 326 30.68 326 30 326 C30 326.66 30 327.32 30 328 C29.34 328 28.68 328 28 328 C28 328.66 28 329.32 28 330 C27.34 330 26.68 330 26 330 C26 330.66 26 331.32 26 332 C24.68 332 23.36 332 22 332 C22 332.66 22 333.32 22 334 C21.34 334 20.68 334 20 334 C19.86344544 329.80405078 20.27096747 326.29447561 21.375 322.25 C22.32509963 318.63520233 23.23259404 315.0455914 23.9375 311.375 C24.88148973 306.52918604 25.8938567 301.70019425 26.9375 296.875 C27.09532959 296.1226709 27.25315918 295.3703418 27.41577148 294.59521484 C28.34045687 290.36105589 29.57089218 286.49435782 31.16430664 282.45361328 C32.24924959 279.26819795 33.00506678 276.02058932 33.78125 272.75 C36.3390896 262.10339004 39.89261299 251.7941563 43.36376953 241.41796875 C50.14296603 223.08166176 50.14296603 223.08166176 53 204 C52.34 204 51.68 204 51 204 C49.48685681 206.91002834 47.99185583 209.829009 46.5 212.75 C46.07074219 213.575 45.64148438 214.4 45.19921875 215.25 C44.79316406 216.04921875 44.38710938 216.8484375 43.96875 217.671875 C43.59169922 218.4050293 43.21464844 219.13818359 42.82617188 219.89355469 C41.75657898 222.24352576 41.75657898 222.24352576 42 226 C41.34 226 40.68 226 40 226 C36.32475065 235.46655136 32.89592537 245.01117105 29.625 254.625 C29.26728516 255.65560547 28.90957031 256.68621094 28.54101562 257.74804688 C26.19513939 264.70165225 26.19513939 264.70165225 26 272 C25.01 272 24.02 272 23 272 C23.04640625 271.39414062 23.0928125 270.78828125 23.140625 270.1640625 C23.47238591 262.46246999 21.40541457 256.81082913 18 250 C16.02 250 14.04 250 12 250 C12 250.66 12 251.32 12 252 C11.34 252 10.68 252 10 252 C10 252.66 10 253.32 10 254 C9.34 254 8.68 254 8 254 C6.85555185 258.73038569 7.1202501 261.06460443 9.3125 265.375 C18.2142469 285.40393053 14.18246469 310.58227539 10.27294922 331.41357422 C4.76877304 360.81757189 2.40859044 389.57331812 2.76171875 419.4921875 C2.76929199 420.26560486 2.77686523 421.03902222 2.78466797 421.83587646 C2.85696202 425.98299965 3.19995977 429.92933734 4 434 C4.66 434 5.32 434 6 434 C6 434.66 6 435.32 6 436 C6.66 436 7.32 436 8 436 C8 436.66 8 437.32 8 438 C8.66 438 9.32 438 10 438 C10.03963867 436.9162207 10.07927734 435.83244141 10.12011719 434.71582031 C11.01745138 410.8423261 12.63800543 387.23347052 15.57470703 363.5234375 C16.11807991 359.02173984 16.58147959 354.5148652 17 350 C19.31 350 21.62 350 24 350 C24 349.34 24 348.68 24 348 C25.65 348 27.3 348 29 348 C29 347.34 29 346.68 29 346 C29.99 346 30.98 346 32 346 C32 345.34 32 344.68 32 344 C32.66 344 33.32 344 34 344 C34 343.34 34 342.68 34 342 C34.66 342 35.32 342 36 342 C36 341.34 36 340.68 36 340 C36.66 340 37.32 340 38 340 C38 339.34 38 338.68 38 338 C38.66 338 39.32 338 40 338 C40 337.34 40 336.68 40 336 C40.66 336 41.32 336 42 336 C42.67154933 334.71086513 43.33708859 333.41859796 44 332.125 C44.556875 331.04605469 44.556875 331.04605469 45.125 329.9453125 C46.13673746 328.05151023 46.13673746 328.05151023 46 326 C46.66 326 47.32 326 48 326 C48 324.68 48 323.36 48 322 C48.66 322 49.32 322 50 322 C50 320.68 50 319.36 50 318 C50.66 318 51.32 318 52 318 C52 316.68 52 315.36 52 314 C52.66 314 53.32 314 54 314 C58.25399353 302.25897784 61.35477792 290.66802471 63.56079102 278.37792969 C64.02125983 275.88489675 64.52966835 273.40452921 65.04296875 270.921875 C65.92504347 266.54637609 66.5587219 262.18324728 67.0625 257.75 C67.92010097 250.40723464 67.92010097 250.40723464 68.51416016 247.37939453 C69.147689 242.97270796 69.20082551 238.64223538 69.23828125 234.1953125 C69.24802979 233.24695526 69.25777832 232.29859802 69.26782227 231.32150269 C69.65839642 194.8746743 69.65839642 194.8746743 60 160 C59.34 160 58.68 160 58 160 C58 158.68 58 157.36 58 156 C57.34 156 56.68 156 56 156 C55.505 154.02 55.505 154.02 55 152 C54.34 152 53.68 152 53 152 C53 151.34 53 150.68 53 150 C52.34 150 51.68 150 51 150 C51 149.34 51 148.68 51 148 C50.01 148 49.02 148 48 148 C48 147.34 48 146.68 48 146 C46.35 146 44.7 146 43 146 C43 145.34 43 144.68 43 144 C39.7 144 36.4 144 33 144 Z " fill="#1A72D1" transform="translate(460,207)"/>
<path d="M0 0 C2.31 0 4.62 0 7 0 C7 0.66 7 1.32 7 2 C8.32 2 9.64 2 11 2 C11 2.66 11 3.32 11 4 C11.66 4 12.32 4 13 4 C13.495 5.98 13.495 5.98 14 8 C14.66 8 15.32 8 16 8 C22.23324819 22.87120126 24.17936159 35.55065947 24.13037109 51.65722656 C24.12504492 53.73249742 24.13032878 55.80754847 24.13671875 57.8828125 C24.14501037 70.4299934 23.51631565 82.7758675 21.1875 95.125 C21.01226807 96.07294434 20.83703613 97.02088867 20.65649414 97.99755859 C19.51008571 103.96133794 18.04037135 109.63823556 15.93359375 115.34375 C14.91507137 118.24163795 14.19851249 121.13461138 13.5 124.125 C12.17863773 129.65866078 10.27040589 134.79074384 8 140 C7.34 140 6.68 140 6 140 C5.855625 140.94875 5.71125 141.8975 5.5625 142.875 C5 146 5 146 4 148 C3.34 148 2.68 148 2 148 C2 149.32 2 150.64 2 152 C1.34 152 0.68 152 0 152 C-0.66 153.98 -1.32 155.96 -2 158 C-2.66 158 -3.32 158 -4 158 C-4 158.66 -4 159.32 -4 160 C-4.66 160 -5.32 160 -6 160 C-6 160.66 -6 161.32 -6 162 C-6.66 162 -7.32 162 -8 162 C-8 162.66 -8 163.32 -8 164 C-8.66 164 -9.32 164 -10 164 C-10 164.66 -10 165.32 -10 166 C-10.66 166 -11.32 166 -12 166 C-12 166.66 -12 167.32 -12 168 C-13.32 168 -14.64 168 -16 168 C-16 168.66 -16 169.32 -16 170 C-16.66 170 -17.32 170 -18 170 C-18.97201086 165.59007154 -18.92257323 162.58153646 -17.6875 158.25 C-16.70605316 154.63367786 -15.76310264 151.05634844 -15.0625 147.375 C-14.11851027 142.52918604 -13.1061433 137.70019425 -12.0625 132.875 C-11.90467041 132.1226709 -11.74684082 131.3703418 -11.58422852 130.59521484 C-10.65954313 126.36105589 -9.42910782 122.49435782 -7.83569336 118.45361328 C-6.75075041 115.26819795 -5.99493322 112.02058932 -5.21875 108.75 C-2.6609104 98.10339004 0.89261299 87.7941563 4.36376953 77.41796875 C8.05320821 66.36014004 11.34897859 55.35555627 14 44 C14.33031419 42.66591551 14.66196703 41.33214962 15 40 C14.34 40 13.68 40 13 40 C12.73316406 40.86367188 12.46632813 41.72734375 12.19140625 42.6171875 C11.01084428 45.96920936 9.57679919 48.97529 7.9375 52.125 C6.23238524 55.401822 4.70533701 58.36011274 4 62 C3.34 62 2.68 62 2 62 C1.9175 62.78375 1.835 63.5675 1.75 64.375 C1.1291352 67.37584654 0.38402073 69.668951 -0.78515625 72.4609375 C-3.16603408 78.31210245 -5.19602571 84.25689539 -7.1875 90.25 C-7.54263672 91.29929687 -7.89777344 92.34859375 -8.26367188 93.4296875 C-8.60333984 94.44804687 -8.94300781 95.46640625 -9.29296875 96.515625 C-9.74965942 97.88122559 -9.74965942 97.88122559 -10.21557617 99.27441406 C-11.04811152 102.16716993 -11.55956681 105.02441044 -12 108 C-12.99 108 -13.98 108 -15 108 C-15.16435547 106.58847656 -15.16435547 106.58847656 -15.33203125 105.1484375 C-15.49058594 103.90320313 -15.64914062 102.65796875 -15.8125 101.375 C-15.96332031 100.14523437 -16.11414063 98.91546875 -16.26953125 97.6484375 C-17.00526748 93.97369077 -18.24228477 91.28427888 -20 88 C-20 87.34 -20 86.68 -20 86 C-21.98 86 -23.96 86 -26 86 C-26 86.66 -26 87.32 -26 88 C-26.66 88 -27.32 88 -28 88 C-28 88.66 -28 89.32 -28 90 C-28.66 90 -29.32 90 -30 90 C-30.25290915 94.5390537 -29.63341367 97.32334467 -27.625 101.375 C-18.85833385 121.49114612 -22.80953271 146.53963462 -26.72705078 167.41357422 C-31.54349771 193.14363625 -34.36901502 218.55233866 -34.375 244.75 C-34.37690338 245.65913147 -34.37880676 246.56826294 -34.38076782 247.50494385 C-34.38014825 250.102584 -34.36223567 252.69937864 -34.3359375 255.296875 C-34.33352554 256.05996979 -34.33111359 256.82306458 -34.32862854 257.60928345 C-34.24065263 262.68525056 -33.38437437 267.1129168 -32 272 C-31.34 272 -30.68 272 -30 272 C-30 272.66 -30 273.32 -30 274 C-29.34 274 -28.68 274 -28 274 C-28.01160156 272.81148437 -28.02320313 271.62296875 -28.03515625 270.3984375 C-28.16868686 251.20144898 -27.1670884 232.32698235 -25.0625 213.25 C-24.97713989 212.46882812 -24.89177979 211.68765625 -24.80383301 210.8828125 C-23.8809284 202.51725661 -22.89602668 194.21315637 -21 186 C-18.69 186 -16.38 186 -14 186 C-14 185.34 -14 184.68 -14 184 C-12.35 184 -10.7 184 -9 184 C-9 183.34 -9 182.68 -9 182 C-8.01 182 -7.02 182 -6 182 C-6 181.34 -6 180.68 -6 180 C-5.34 180 -4.68 180 -4 180 C-4 179.34 -4 178.68 -4 178 C-3.34 178 -2.68 178 -2 178 C-2 177.34 -2 176.68 -2 176 C-1.34 176 -0.68 176 0 176 C0 175.34 0 174.68 0 174 C0.66 174 1.32 174 2 174 C2 173.34 2 172.68 2 172 C2.66 172 3.32 172 4 172 C4.433125 170.63875 4.433125 170.63875 4.875 169.25 C5.76531776 166.67797092 6.71494413 164.38653234 8 162 C8.66 162 9.32 162 10 162 C10 160.68 10 159.36 10 158 C10.66 158 11.32 158 12 158 C12 156.68 12 155.36 12 154 C12.66 154 13.32 154 14 154 C14 152.68 14 151.36 14 150 C14.66 150 15.32 150 16 150 C16.12761719 149.11570312 16.25523437 148.23140625 16.38671875 147.3203125 C16.94438668 144.3010912 17.73917728 141.74004471 18.8125 138.875 C21.54659746 130.92126194 22.98775051 122.72624143 24.52832031 114.47729492 C25.01307189 111.93134551 25.53236408 109.3939509 26.0546875 106.85546875 C26.88306144 102.73047185 27.50355144 98.61741957 28 94.4375 C28.07976074 93.77492188 28.15952148 93.11234375 28.24169922 92.4296875 C28.49853099 90.28691952 28.74948991 88.14351557 29 86 C29.18988941 84.39710996 29.37999748 82.79424581 29.5703125 81.19140625 C30.05153819 77.12814038 30.5271786 73.064252 31 69 C31.66 69 32.32 69 33 69 C32.9175 67.741875 32.835 66.48375 32.75 65.1875 C32.734375 62.98046875 32.734375 62.98046875 33 61 C35 59 35 59 37 58 C37 58.66 37 59.32 37 60 C38.65 60 40.3 60 42 60 C48.65802807 70.62175685 41.03689454 92.37767949 39.0536499 103.8062439 C37.59228061 112.28083903 36.29846746 120.7819913 35.00256348 129.28320312 C32.99759728 142.42839932 30.28800734 155.25857312 27.2109375 168.19140625 C25.95627748 173.54588967 24.8159169 178.87275199 23.94921875 184.3046875 C23.18907174 189.06478589 22.16575204 193.62708929 20.8125 198.25 C20.60181885 198.98814941 20.3911377 199.72629883 20.17407227 200.48681641 C19.71012258 202.10640446 19.24278831 203.72502595 18.77246094 205.34277344 C17.92732704 208.24999131 17.09256759 211.16009843 16.2578125 214.0703125 C12.24051789 228.0236436 8.17911231 241.68341333 2.26953125 254.96875 C1.2750384 257.34329292 0.51065222 259.48980597 0 262 C-0.66 262 -1.32 262 -2 262 C-2.144375 262.94875 -2.28875 263.8975 -2.4375 264.875 C-3 268 -3 268 -4 270 C-4.66 270 -5.32 270 -6 270 C-6 271.32 -6 272.64 -6 274 C-6.66 274 -7.32 274 -8 274 C-8.66 275.98 -9.32 277.96 -10 280 C-10.66 280 -11.32 280 -12 280 C-12.33 281.32 -12.66 282.64 -13 284 C-13.66 284 -14.32 284 -15 284 C-15.33 285.32 -15.66 286.64 -16 288 C-16.99 288 -17.98 288 -19 288 C-19 288.66 -19 289.32 -19 290 C-19.99 290 -20.98 290 -22 290 C-22 290.66 -22 291.32 -22 292 C-25.3 292 -28.6 292 -32 292 C-32 291.34 -32 290.68 -32 290 C-32.66 290 -33.32 290 -34 290 C-34 289.34 -34 288.68 -34 288 C-34.66 288 -35.32 288 -36 288 C-51.2140744 260.71959073 -44.30097241 220.4505505 -39.11254883 190.78466797 C-36.80589763 177.46379594 -36.80589763 177.46379594 -36 164 C-36.66 164 -37.32 164 -38 164 C-45.06282154 150.36144805 -46.18698286 138.86375828 -46.18530273 123.59814453 C-46.18747543 121.3998638 -46.2056552 119.20209785 -46.22460938 117.00390625 C-46.26376634 107.1731 -45.45072137 97.72647309 -44 88 C-43.86891846 87.08299316 -43.73783691 86.16598633 -43.6027832 85.22119141 C-42.33538055 76.61278683 -40.83992621 68.24271265 -38 60 C-37.49072468 58.4666309 -36.98307843 56.93272031 -36.4765625 55.3984375 C-34.99781764 50.92771196 -33.50221493 46.46289095 -32 42 C-31.34 42 -30.68 42 -30 42 C-29.90847656 41.16210938 -29.81695312 40.32421875 -29.72265625 39.4609375 C-28.89195787 35.4825658 -27.31535657 32.1873497 -25.4375 28.625 C-25.10814453 27.98433594 -24.77878906 27.34367187 -24.43945312 26.68359375 C-23.63360518 25.11861368 -22.81781507 23.55875979 -22 22 C-21.34 22 -20.68 22 -20 22 C-19.690625 21.05125 -19.38125 20.1025 -19.0625 19.125 C-18 16 -18 16 -17 14 C-16.34 14 -15.68 14 -15 14 C-14.67 12.68 -14.34 11.36 -14 10 C-13.34 10 -12.68 10 -12 10 C-12 9.34 -12 8.68 -12 8 C-11.34 8 -10.68 8 -10 8 C-10 7.34 -10 6.68 -10 6 C-9.01 6 -8.02 6 -7 6 C-7 5.34 -7 4.68 -7 4 C-6.01 4 -5.02 4 -4 4 C-4 3.34 -4 2.68 -4 2 C-2.68 2 -1.36 2 0 2 C0 1.34 0 0.68 0 0 Z " fill="#1E72CF" transform="translate(498,371)"/>
<path d="M0 0 C0.33 0 0.66 0 1 0 C1.33 111.21 1.66 222.42 2 337 C1.34 337.33 0.68 337.66 0 338 C-1.26215138 323.51929583 -1.14398492 309.03114579 -1.13072467 294.50733995 C-1.12843906 290.79630385 -1.13196574 287.08527224 -1.13470459 283.37423706 C-1.13912776 276.12528014 -1.13820126 268.87633363 -1.13529195 261.62737632 C-1.13302428 255.73067881 -1.13273128 249.8339842 -1.13381577 243.93728638 C-1.133969 243.09481324 -1.13412223 242.25234011 -1.13428011 241.38433748 C-1.13459987 239.67233173 -1.13492408 237.96032598 -1.1352527 236.24832022 C-1.13809738 220.23274163 -1.13483638 204.21716878 -1.12945233 188.20159113 C-1.12498522 174.48953444 -1.12576144 160.77748622 -1.13037109 147.06542969 C-1.13573477 131.10320999 -1.13782278 115.14099531 -1.13475883 99.17877483 C-1.13444031 97.4734211 -1.13412594 95.76806736 -1.13381577 94.06271362 C-1.13366149 93.22386708 -1.13350721 92.38502053 -1.13334826 91.5207544 C-1.13248849 85.6380314 -1.13393433 79.75531161 -1.13629532 73.87258911 C-1.13911347 66.69367361 -1.13831281 59.51476903 -1.13301457 52.33585477 C-1.13040461 48.68017429 -1.12932609 45.02451194 -1.13266373 41.36883163 C-1.15629635 13.26622591 -1.15629635 13.26622591 0 0 Z " fill="#3186DB" transform="translate(403,361)"/>
<path d="M0 0 C34.65 0 69.3 0 105 0 C105 0.99 105 1.98 105 3 C103.37865898 3.0154612 103.37865898 3.0154612 101.7245636 3.03123474 C91.44447429 3.12978938 81.1644346 3.23258598 70.88442707 3.33933926 C65.60176155 3.39406635 60.31909027 3.44739483 55.03637695 3.49731445 C49.92047929 3.54571274 44.80463482 3.59806218 39.68880272 3.65294075 C37.75520371 3.67302893 35.82159034 3.69178846 33.88796425 3.70907402 C20.57048855 3.82932472 7.29862083 4.27898309 -6 5 C-6 5.66 -6 6.32 -6 7 C-7.32 7 -8.64 7 -10 7 C-10 7.66 -10 8.32 -10 9 C-10.99 9 -11.98 9 -13 9 C-13 9.66 -13 10.32 -13 11 C-13.99 11 -14.98 11 -16 11 C-16 11.66 -16 12.32 -16 13 C-16.66 13 -17.32 13 -18 13 C-18.33 14.32 -18.66 15.64 -19 17 C-19.66 17 -20.32 17 -21 17 C-21 17.66 -21 18.32 -21 19 C-21.66 19 -22.32 19 -23 19 C-23.33 20.32 -23.66 21.64 -24 23 C-24.66 23 -25.32 23 -26 23 C-26.268125 23.928125 -26.53625 24.85625 -26.8125 25.8125 C-27.91148371 28.76240366 -28.62418561 30.05615186 -31 32 C-31.33 31.34 -31.66 30.68 -32 30 C-31.0625 27.875 -31.0625 27.875 -30 26 C-29.34 26 -28.68 26 -28 26 C-28 24.68 -28 23.36 -28 22 C-27.34 22 -26.68 22 -26 22 C-26 21.34 -26 20.68 -26 20 C-25.34 20 -24.68 20 -24 20 C-23.67 18.68 -23.34 17.36 -23 16 C-22.34 16 -21.68 16 -21 16 C-20.67 14.68 -20.34 13.36 -20 12 C-19.34 12 -18.68 12 -18 12 C-18 11.34 -18 10.68 -18 10 C-17.34 10 -16.68 10 -16 10 C-16 9.34 -16 8.68 -16 8 C-15.01 8 -14.02 8 -13 8 C-13 7.34 -13 6.68 -13 6 C-12.01 6 -11.02 6 -10 6 C-10 5.34 -10 4.68 -10 4 C-8.68 4 -7.36 4 -6 4 C-6 3.34 -6 2.68 -6 2 C-4.02 2 -2.04 2 0 2 C0 1.34 0 0.68 0 0 Z " fill="#2F81D4" transform="translate(460,207)"/>
<path d="M0 0 C3.1759529 9.52785869 -3.47203285 24.91611981 -6.24365234 34.40722656 C-7.08380298 37.28727813 -7.91116352 40.17086707 -8.73828125 43.0546875 C-12.75600398 57.01349066 -16.81870773 70.67851258 -22.73046875 83.96875 C-23.7249616 86.34329292 -24.48934778 88.48980597 -25 91 C-25.66 91 -26.32 91 -27 91 C-27.144375 91.94875 -27.28875 92.8975 -27.4375 93.875 C-28 97 -28 97 -29 99 C-29.66 99 -30.32 99 -31 99 C-31 100.32 -31 101.64 -31 103 C-31.66 103 -32.32 103 -33 103 C-33.66 104.98 -34.32 106.96 -35 109 C-35.66 109 -36.32 109 -37 109 C-37.33 110.32 -37.66 111.64 -38 113 C-38.66 113 -39.32 113 -40 113 C-40.33 114.32 -40.66 115.64 -41 117 C-41.99 117 -42.98 117 -44 117 C-44 117.66 -44 118.32 -44 119 C-44.99 119 -45.98 119 -47 119 C-47 119.66 -47 120.32 -47 121 C-50.3 121 -53.6 121 -57 121 C-57 120.34 -57 119.68 -57 119 C-57.66 119 -58.32 119 -59 119 C-59 118.34 -59 117.68 -59 117 C-59.66 117 -60.32 117 -61 117 C-61.99 114.03 -61.99 114.03 -63 111 C-60.5625 111.75 -60.5625 111.75 -58 113 C-57.33984375 115.078125 -57.33984375 115.078125 -57 117 C-54.87420987 116.94011859 -52.74921587 116.85137256 -50.625 116.75 C-49.44164062 116.70359375 -48.25828125 116.6571875 -47.0390625 116.609375 C-43.88708247 116.34351201 -43.88708247 116.34351201 -42.5859375 113.953125 C-42.39257812 113.30859375 -42.19921875 112.6640625 -42 112 C-41.34 112 -40.68 112 -40 112 C-40 111.34 -40 110.68 -40 110 C-39.34 110 -38.68 110 -38 110 C-37.34 108.02 -36.68 106.04 -36 104 C-35.34 104 -34.68 104 -34 104 C-33.74476563 103.16597656 -33.48953125 102.33195313 -33.2265625 101.47265625 C-31.87496716 97.64600576 -30.16041498 94.07260318 -28.375 90.4375 C-22.30103009 77.77672211 -16.51370089 64.46869982 -13.66796875 50.66796875 C-13 48 -13 48 -11.58203125 44.34375 C-9.69869928 39.44593674 -8.6084556 34.43196047 -7.5 29.3125 C-7.06642371 27.36197528 -6.63283003 25.41145444 -6.19921875 23.4609375 C-5.79914224 21.64069902 -5.39937527 19.82039246 -5 18 C-4.44353064 15.47771175 -3.88045342 12.95725273 -3.3125 10.4375 C-3.10238281 9.48746094 -2.89226563 8.53742187 -2.67578125 7.55859375 C-1.98177338 4.9309917 -1.06204587 2.49919731 0 0 Z " fill="#A8CCEF" transform="translate(523,542)"/>
<path d="M0 0 C30.36 0 60.72 0 92 0 C92 0.99 92 1.98 92 3 C61.64 3 31.28 3 0 3 C0 2.01 0 1.02 0 0 Z " fill="#AED3F5" transform="translate(466,848)"/>
<path d="M0 0 C2.31 0 4.62 0 7 0 C7 0.66 7 1.32 7 2 C8.32 2 9.64 2 11 2 C11 2.66 11 3.32 11 4 C11.66 4 12.32 4 13 4 C13.495 5.98 13.495 5.98 14 8 C14.66 8 15.32 8 16 8 C18.45417612 13.673142 20.46246904 18.81839396 21 25 C18.39667844 21.83936913 16.85961424 18.6568348 15.3125 14.875 C14.87550781 13.82054687 14.43851563 12.76609375 13.98828125 11.6796875 C13 9 13 9 13 7 C12.34 7 11.68 7 11 7 C11 6.34 11 5.68 11 5 C9.25034642 4.94570041 7.50020213 4.90707177 5.75 4.875 C4.77546875 4.85179687 3.8009375 4.82859375 2.796875 4.8046875 C-0.06169722 5.00430847 -1.52538147 5.6569378 -4 7 C-4.99 7 -5.98 7 -7 7 C-7 7.66 -7 8.32 -7 9 C-7.99 9 -8.98 9 -10 9 C-10 9.66 -10 10.32 -10 11 C-10.66 11 -11.32 11 -12 11 C-12.33 12.32 -12.66 13.64 -13 15 C-13.66 15 -14.32 15 -15 15 C-15.66 16.98 -16.32 18.96 -17 21 C-17.66 21 -18.32 21 -19 21 C-19.28875 21.9075 -19.5775 22.815 -19.875 23.75 C-20.76531776 26.32202908 -21.71494413 28.61346766 -23 31 C-23.66 31 -24.32 31 -25 31 C-25.19335938 31.71027344 -25.38671875 32.42054688 -25.5859375 33.15234375 C-25.84632813 34.07144531 -26.10671875 34.99054688 -26.375 35.9375 C-26.63023437 36.85402344 -26.88546875 37.77054687 -27.1484375 38.71484375 C-28 41 -28 41 -30 42 C-29.45318976 36.99399078 -27.75859667 33.02818933 -25.4375 28.625 C-25.10814453 27.98433594 -24.77878906 27.34367187 -24.43945312 26.68359375 C-23.63360518 25.11861368 -22.81781507 23.55875979 -22 22 C-21.34 22 -20.68 22 -20 22 C-19.690625 21.05125 -19.38125 20.1025 -19.0625 19.125 C-18 16 -18 16 -17 14 C-16.34 14 -15.68 14 -15 14 C-14.67 12.68 -14.34 11.36 -14 10 C-13.34 10 -12.68 10 -12 10 C-12 9.34 -12 8.68 -12 8 C-11.34 8 -10.68 8 -10 8 C-10 7.34 -10 6.68 -10 6 C-9.01 6 -8.02 6 -7 6 C-7 5.34 -7 4.68 -7 4 C-6.01 4 -5.02 4 -4 4 C-4 3.34 -4 2.68 -4 2 C-2.68 2 -1.36 2 0 2 C0 1.34 0 0.68 0 0 Z " fill="#B5D7F3" transform="translate(498,371)"/>
<path d="M0 0 C0.66 0 1.32 0 2 0 C2.33 20.13 2.66 40.26 3 61 C3.66 61 4.32 61 5 61 C5.33 62.32 5.66 63.64 6 65 C6.99 65 7.98 65 9 65 C9.08040527 64.34402832 9.16081055 63.68805664 9.24365234 63.01220703 C9.61193256 60.04862827 9.99329573 57.08687835 10.375 54.125 C10.56449219 52.57619141 10.56449219 52.57619141 10.7578125 50.99609375 C10.88671875 50.00996094 11.015625 49.02382813 11.1484375 48.0078125 C11.26364746 47.09660645 11.37885742 46.18540039 11.49755859 45.24658203 C12 43 12 43 14 41 C12.67279412 62.65441176 12.67279412 62.65441176 10 68 C8.68 68 7.36 68 6 68 C6 67.34 6 66.68 6 66 C5.34 66 4.68 66 4 66 C0.49008443 57.14890857 -0.14191915 49.52807733 -0.09765625 40.0390625 C-0.0962413 38.89335785 -0.09482635 37.7476532 -0.09336853 36.56723022 C-0.0877858 32.91979322 -0.07523641 29.27241835 -0.0625 25.625 C-0.05748277 23.14713631 -0.05292025 20.66927165 -0.04882812 18.19140625 C-0.03782201 12.12758309 -0.02110103 6.06379598 0 0 Z " fill="#C1DBF1" transform="translate(541,542)"/>
<path d="M0 0 C0.99 0 1.98 0 3 0 C3.16742965 16.10580208 2.63801477 32.15832557 2 48.25 C1.90329626 50.76040322 1.8069399 53.27081986 1.7109375 55.78125 C1.47795214 61.85432664 1.24072051 67.92722529 1 74 C0.67 74 0.34 74 0 74 C0 55.19 0 36.38 0 17 C-0.66 21.62 -1.32 26.24 -2 31 C-2.66 32.98 -3.32 34.96 -4 37 C-4.33 37 -4.66 37 -5 37 C-4.54661526 28.71400303 -3.61027012 20.53291054 -2.5 12.3125 C-2.30410278 10.84176025 -2.30410278 10.84176025 -2.10424805 9.34130859 C-1.97703369 8.42043457 -1.84981934 7.49956055 -1.71875 6.55078125 C-1.60466797 5.72231689 -1.49058594 4.89385254 -1.37304688 4.0402832 C-1 2 -1 2 0 0 Z " fill="#B9D7F3" transform="translate(542,467)"/>
<path d="M0 0 C0.33 0 0.66 0 1 0 C1.00423194 0.56008098 1.00846388 1.12016195 1.01282406 1.69721508 C1.11651754 15.37960365 1.22526622 29.0619442 1.33933926 42.7442503 C1.39435584 49.36114118 1.4477402 55.97803663 1.49731445 62.5949707 C1.5452737 68.98814778 1.59762485 75.38127557 1.65294075 81.77439308 C1.67322227 84.20583674 1.69195737 86.63729383 1.70907402 89.06876183 C1.76271698 105.34922383 1.76271698 105.34922383 2.78283691 121.58874512 C3.11990185 125.33132166 3.110585 129.05817101 3.0625 132.8125 C3.05798828 133.51697266 3.05347656 134.22144531 3.04882812 134.94726562 C3.03737041 136.63155009 3.01945815 138.31578897 3 140 C2.34 140.33 1.68 140.66 1 141 C-0.23757447 126.72408602 -0.1320959 112.45526411 -0.10139394 98.13656044 C-0.09506215 94.67596259 -0.09454895 91.21536349 -0.09336853 87.75476074 C-0.09028376 81.22812261 -0.08210963 74.70150162 -0.07201904 68.17487097 C-0.06076827 60.73328961 -0.05532506 53.29170736 -0.05032361 45.85011959 C-0.039924 30.56673654 -0.02238097 15.28337049 0 0 Z " fill="#3082CF" transform="translate(402,558)"/>
<path d="M0 0 C0.33 0 0.66 0 1 0 C0.98428955 0.97420898 0.9685791 1.94841797 0.95239258 2.95214844 C0.61617983 25.86651777 0.94385581 48.35647661 5 71 C5.66 71 6.32 71 7 71 C7.33 72.32 7.66 73.64 8 75 C10.31 75 12.62 75 15 75 C15 74.34 15 73.68 15 73 C15.66 73 16.32 73 17 73 C17 73.99 17 74.98 17 76 C16.34 76 15.68 76 15 76 C15 76.66 15 77.32 15 78 C12.69 78 10.38 78 8 78 C8 77.34 8 76.68 8 76 C7.34 76 6.68 76 6 76 C-2.49329104 60.00502042 -1.26848582 40.43061661 -1.25 22.875 C-1.24931519 21.91956299 -1.24863037 20.96412598 -1.2479248 19.97973633 C-1.24144455 17.2337558 -1.2250696 14.48808471 -1.203125 11.7421875 C-1.19873413 10.90553558 -1.19434326 10.06888367 -1.18981934 9.20687866 C-1.14928038 5.89428509 -1.05450508 3.16351525 0 0 Z " fill="#A1CBEE" transform="translate(571,582)"/>
<path d="M0 0 C35.64 0 71.28 0 108 0 C108 0.99 108 1.98 108 3 C72.36 3 36.72 3 0 3 C0 2.01 0 1.02 0 0 Z " fill="#2B79D2" transform="translate(458,846)"/>
<path d="M0 0 C13.00010691 23.62628125 3.49310478 61.16693036 -1 86 C-1.33 86 -1.66 86 -2 86 C-1.54764346 79.04799424 -0.92178422 72.15650265 0 65.25 C1.60618439 52.87615699 2.08931516 40.53498035 2.1875 28.0625 C2.20055176 27.11560303 2.21360352 26.16870605 2.22705078 25.19311523 C2.23384696 19.65956575 1.70387705 14.59346885 0.44311523 9.20141602 C-0.18619629 6.07496864 -0.13817872 3.17811047 0 0 Z " fill="#A9CDED" transform="translate(438,593)"/>
<path d="M0 0 C0.99 0 1.98 0 3 0 C3.26404456 6.86515862 2.25841946 13.25846717 1 20 C0.67 20 0.34 20 0 20 C-0.33 18.35 -0.66 16.7 -1 15 C-3.95484916 26.19366386 -6.43335191 37.46736356 -8.80517578 48.79785156 C-10.37270287 56.24439163 -12.09747136 63.63179635 -14 71 C-14.33 71 -14.66 71 -15 71 C-15.20191553 65.79730976 -14.51039339 61.29283978 -13.125 56.3125 C-11.5906848 50.5228836 -10.40577195 44.79998367 -9.49609375 38.875 C-8.62798787 33.84408716 -7.29198688 28.93538988 -6 24 C-5.33076511 21.33394232 -4.66406347 18.66734213 -4 16 C-3.64338257 14.57287832 -3.2866113 13.14579508 -2.9296875 11.71875 C-2.75566406 11.02265625 -2.58164062 10.3265625 -2.40234375 9.609375 C-1.6015625 6.40625 -0.80078125 3.203125 0 0 Z " fill="#BAD6F0" transform="translate(580,459)"/>
<path d="M0 0 C0.99 0 1.98 0 3 0 C3.52343629 6.49061004 2.66732523 11.96570115 0.8671875 18.1953125 C0.64548386 18.97648437 0.42378021 19.75765625 0.19535828 20.5625 C-2.13186139 28.65041327 -4.71998546 36.64997835 -7.39428711 44.62890625 C-8.2049471 47.05215336 -9.00406416 49.47902808 -9.80273438 51.90625 C-10.31963501 53.45855909 -10.83718694 55.0106515 -11.35546875 56.5625 C-11.59194626 57.2831665 -11.82842377 58.00383301 -12.07206726 58.74633789 C-13.77050298 63.77050298 -13.77050298 63.77050298 -16 66 C-14.1765037 56.48563992 -10.95088126 47.40972394 -7.89160156 38.23901367 C-4.45484701 27.91145093 -1.5049448 17.59511153 1 7 C1.33079669 5.66603507 1.66267498 4.33232906 2 3 C1.34 3 0.68 3 0 3 C-0.2475 3.825 -0.495 4.65 -0.75 5.5 C-2.18704811 9.52373471 -4.02354515 13.21979024 -6 17 C-6.33 17 -6.66 17 -7 17 C-6.5188509 11.22621075 -4.81532819 7.04140164 -2 2 C-1.34 2 -0.68 2 0 2 C0 1.34 0 0.68 0 0 Z " fill="#A7CBEC" transform="translate(511,408)"/>
<path d="M0 0 C1.65 0 3.3 0 5 0 C5 0.66 5 1.32 5 2 C5.99 2 6.98 2 8 2 C9.23004981 4.46009963 9.13314027 6.13172806 9.125 8.875 C9.12886719 10.17050781 9.12886719 10.17050781 9.1328125 11.4921875 C9.01023921 13.80665971 8.64966445 15.78289116 8 18 C7.34 18 6.68 18 6 18 C6.33 13.71 6.66 9.42 7 5 C6.34 5 5.68 5 5 5 C5 4.34 5 3.68 5 3 C3.02 3 1.04 3 -1 3 C-1.26554688 4.0621875 -1.53109375 5.124375 -1.8046875 6.21875 C-3.90625 14.625 -3.90625 14.625 -6.0078125 23.03125 C-6.25362061 24.01520752 -6.25362061 24.01520752 -6.50439453 25.01904297 C-6.83518153 26.34121326 -7.16688955 27.66315347 -7.49951172 28.98486328 C-8.35485241 32.388702 -9.19227558 35.79546216 -10 39.2109375 C-10.33333333 40.59895833 -10.66666667 41.98697917 -11 43.375 C-11.2475 44.44041016 -11.2475 44.44041016 -11.5 45.52734375 C-12.77443609 50.77443609 -12.77443609 50.77443609 -15 53 C-14.35260946 46.85334693 -13.16349445 40.99768294 -11.6875 35 C-11.35419678 33.62992798 -11.35419678 33.62992798 -11.01416016 32.23217773 C-10.5616162 30.37551656 -10.10720711 28.51930893 -9.65087891 26.66357422 C-9.05053839 24.20681689 -8.46570151 21.74701833 -7.88671875 19.28515625 C-7.5498284 17.87752054 -7.21261005 16.46996327 -6.875 15.0625 C-6.58367188 13.83660156 -6.29234375 12.61070312 -5.9921875 11.34765625 C-4.99434491 7.98091963 -3.66661641 5.08371116 -2 2 C-1.34 2 -0.68 2 0 2 C0 1.34 0 0.68 0 0 Z " fill="#AECFEE" transform="translate(591,398)"/>
<path d="M0 0 C1.30712484 3.92137453 0.41845424 6.95405184 -0.3984375 10.88671875 C-0.63006088 12.05047783 -0.63006088 12.05047783 -0.86636353 13.23774719 C-1.36205233 15.72250463 -1.86797174 18.20503384 -2.375 20.6875 C-2.87324354 23.15240543 -3.36925128 25.61772725 -3.86221313 28.08369446 C-4.16929445 29.6170931 -4.47962097 31.14984684 -4.79379272 32.68180847 C-5.75372233 37.44107994 -6.4487557 42.17576272 -7 47 C-7.99 47 -8.98 47 -10 47 C-10.13088769 32.96078522 -9.85120257 19.01444237 -9 5 C-8.67 5 -8.34 5 -8 5 C-7.67 13.91 -7.34 22.82 -7 32 C-5.43876667 23.34051846 -5.43876667 23.34051846 -3.88916016 14.67895508 C-3.69112793 13.59509521 -3.4930957 12.51123535 -3.2890625 11.39453125 C-3.09006348 10.28956299 -2.89106445 9.18459473 -2.68603516 8.04614258 C-2.04331898 5.19234552 -1.17084415 2.67466071 0 0 Z " fill="#A1C7ED" transform="translate(562,510)"/>
<path d="M0 0 C0.33 0 0.66 0 1 0 C2.23379175 14.9447756 2.31841915 29.92639783 2.53222656 44.91235352 C2.58317856 48.42598667 2.638473 51.93955149 2.69335938 55.453125 C2.79972898 62.30202377 2.90142357 69.15098473 3 76 C2.34 75.67 1.68 75.34 1 75 C-0.63840587 66.23415419 -0.13247648 56.92593099 -0.09765625 48.046875 C-0.0957856 46.65155081 -0.09436476 45.25622596 -0.09336853 43.86090088 C-0.08959423 40.2311209 -0.07980896 36.60138248 -0.06866455 32.97161865 C-0.05833951 29.25061607 -0.05384742 25.52960661 -0.04882812 21.80859375 C-0.03818083 14.53904378 -0.02116751 7.26952777 0 0 Z " fill="#79B4E7" transform="translate(620,359)"/>
<path d="M0 0 C1.23942323 3.7182697 0.2422174 5.31569886 -1.1796875 8.83203125 C-2.17076317 11.45130267 -2.76330318 14.12802041 -3.3984375 16.8515625 C-4.34954954 20.24839121 -5.72778215 23.45678184 -7.09765625 26.703125 C-7.91878574 28.7932728 -8.5130362 30.811173 -9 33 C-9.66 33 -10.32 33 -11 33 C-11 34.32 -11 35.64 -11 37 C-11.66 37 -12.32 37 -13 37 C-13.433125 38.36125 -13.433125 38.36125 -13.875 39.75 C-14.76531776 42.32202908 -15.71494413 44.61346766 -17 47 C-17.66 47 -18.32 47 -19 47 C-19.66 48.98 -20.32 50.96 -21 53 C-21.66 53 -22.32 53 -23 53 C-23 53.66 -23 54.32 -23 55 C-23.66 55 -24.32 55 -25 55 C-25 55.66 -25 56.32 -25 57 C-25.66 57 -26.32 57 -27 57 C-27 57.66 -27 58.32 -27 59 C-27.66 59 -28.32 59 -29 59 C-29 59.66 -29 60.32 -29 61 C-29.66 61 -30.32 61 -31 61 C-31 61.66 -31 62.32 -31 63 C-31.66 63 -32.32 63 -33 63 C-32.6875 61.0625 -32.6875 61.0625 -32 59 C-30.515 58.505 -30.515 58.505 -29 58 C-29 57.34 -29 56.68 -29 56 C-28.34 56 -27.68 56 -27 56 C-27 55.34 -27 54.68 -27 54 C-26.34 54 -25.68 54 -25 54 C-25 53.34 -25 52.68 -25 52 C-24.34 52 -23.68 52 -23 52 C-22.67 50.68 -22.34 49.36 -22 48 C-21.34 48 -20.68 48 -20 48 C-19.34 46.02 -18.68 44.04 -18 42 C-17.34 42 -16.68 42 -16 42 C-15.88269531 41.4328125 -15.76539063 40.865625 -15.64453125 40.28125 C-14.94010902 37.78802223 -13.91494059 35.78007539 -12.6875 33.5 C-9.80454769 27.84148328 -7.90325459 22.04479362 -6 16 C-5.11409961 13.2675194 -4.21433028 10.53975691 -3.3125 7.8125 C-3.09787109 7.1522583 -2.88324219 6.4920166 -2.66210938 5.81176758 C-1.1135635 1.1135635 -1.1135635 1.1135635 0 0 Z " fill="#AAD0F2" transform="translate(609,780)"/>
<path d="M0 0 C1.98 0 3.96 0 6 0 C6 0.66 6 1.32 6 2 C6.66 2 7.32 2 8 2 C8 2.66 8 3.32 8 4 C8.66 4 9.32 4 10 4 C10 4.66 10 5.32 10 6 C10.66 6 11.32 6 12 6 C12 6.66 12 7.32 12 8 C12.99 8 13.98 8 15 8 C15 8.66 15 9.32 15 10 C19.29 10 23.58 10 28 10 C28 10.99 28 11.98 28 13 C25.93867858 13.10864945 23.87568679 13.18588321 21.8125 13.25 C20.08966797 13.31960938 20.08966797 13.31960938 18.33203125 13.390625 C14.37011251 12.92615622 12.76858652 11.81551171 10 9 C10 8.34 10 7.68 10 7 C9.34 7 8.68 7 8 7 C8 6.34 8 5.68 8 5 C7.34 5 6.68 5 6 5 C6 4.34 6 3.68 6 3 C3.69 3 1.38 3 -1 3 C-1.66 4.98 -2.32 6.96 -3 9 C-3.66 9 -4.32 9 -5 9 C-5.2475 9.845625 -5.495 10.69125 -5.75 11.5625 C-7.13973627 15.38427474 -8.91120838 18.51868063 -11 22 C-11.33 20.68 -11.66 19.36 -12 18 C-11.34 18 -10.68 18 -10 18 C-10 16.68 -10 15.36 -10 14 C-9.34 14 -8.68 14 -8 14 C-7.71125 13.0925 -7.4225 12.185 -7.125 11.25 C-6.23468224 8.67797092 -5.28505587 6.38653234 -4 4 C-3.34 4 -2.68 4 -2 4 C-2 3.34 -2 2.68 -2 2 C-1.34 2 -0.68 2 0 2 C0 1.34 0 0.68 0 0 Z " fill="#A5CBEE" transform="translate(454,673)"/>
<path d="M0 0 C2.97 0 5.94 0 9 0 C8.67 0.99 8.34 1.98 8 3 C5.03 3 2.06 3 -1 3 C-1 3.66 -1 4.32 -1 5 C-2.65 5 -4.3 5 -6 5 C-6 5.66 -6 6.32 -6 7 C-7.32 7 -8.64 7 -10 7 C-10 7.66 -10 8.32 -10 9 C-10.99 9 -11.98 9 -13 9 C-13 9.66 -13 10.32 -13 11 C-13.99 11 -14.98 11 -16 11 C-16 11.66 -16 12.32 -16 13 C-16.66 13 -17.32 13 -18 13 C-18.33 14.32 -18.66 15.64 -19 17 C-19.66 17 -20.32 17 -21 17 C-21 17.66 -21 18.32 -21 19 C-21.66 19 -22.32 19 -23 19 C-23.33 20.32 -23.66 21.64 -24 23 C-24.66 23 -25.32 23 -26 23 C-26.268125 23.928125 -26.53625 24.85625 -26.8125 25.8125 C-27.91148371 28.76240366 -28.62418561 30.05615186 -31 32 C-31.33 31.34 -31.66 30.68 -32 30 C-31.0625 27.875 -31.0625 27.875 -30 26 C-29.34 26 -28.68 26 -28 26 C-28 24.68 -28 23.36 -28 22 C-27.34 22 -26.68 22 -26 22 C-26 21.34 -26 20.68 -26 20 C-25.34 20 -24.68 20 -24 20 C-23.67 18.68 -23.34 17.36 -23 16 C-22.34 16 -21.68 16 -21 16 C-20.67 14.68 -20.34 13.36 -20 12 C-19.34 12 -18.68 12 -18 12 C-18 11.34 -18 10.68 -18 10 C-17.34 10 -16.68 10 -16 10 C-16 9.34 -16 8.68 -16 8 C-15.01 8 -14.02 8 -13 8 C-13 7.34 -13 6.68 -13 6 C-12.01 6 -11.02 6 -10 6 C-10 5.34 -10 4.68 -10 4 C-8.68 4 -7.36 4 -6 4 C-6 3.34 -6 2.68 -6 2 C-4.02 2 -2.04 2 0 2 C0 1.34 0 0.68 0 0 Z " fill="#D1E7F9" transform="translate(460,207)"/>
<path d="M0 0 C0.66 0 1.32 0 2 0 C1.27991594 4.60853797 -0.31295939 8.67237409 -2 13 C-2.66 13 -3.32 13 -4 13 C-4.144375 13.94875 -4.28875 14.8975 -4.4375 15.875 C-5 19 -5 19 -6 21 C-6.66 21 -7.32 21 -8 21 C-8 22.32 -8 23.64 -8 25 C-8.66 25 -9.32 25 -10 25 C-10.66 26.98 -11.32 28.96 -12 31 C-12.66 31 -13.32 31 -14 31 C-14 31.66 -14 32.32 -14 33 C-14.66 33 -15.32 33 -16 33 C-16 33.66 -16 34.32 -16 35 C-16.66 35 -17.32 35 -18 35 C-18 35.66 -18 36.32 -18 37 C-18.66 37 -19.32 37 -20 37 C-20 37.66 -20 38.32 -20 39 C-20.66 39 -21.32 39 -22 39 C-22 39.66 -22 40.32 -22 41 C-23.32 41 -24.64 41 -26 41 C-26 41.66 -26 42.32 -26 43 C-26.66 43 -27.32 43 -28 43 C-28.625 40.125 -28.625 40.125 -29 37 C-28.34 36.34 -27.68 35.68 -27 35 C-26.67 35.99 -26.34 36.98 -26 38 C-24.68 38 -23.36 38 -22 38 C-21.34 36.68 -20.68 35.36 -20 34 C-19.34 34 -18.68 34 -18 34 C-18 33.34 -18 32.68 -18 32 C-17.34 32 -16.68 32 -16 32 C-16 31.34 -16 30.68 -16 30 C-15.34 30 -14.68 30 -14 30 C-13.67 28.68 -13.34 27.36 -13 26 C-12.34 26 -11.68 26 -11 26 C-10.7421875 25.154375 -10.484375 24.30875 -10.21875 23.4375 C-8.70049357 19.15523828 -6.6619622 15.22668906 -4.56640625 11.2109375 C-2.68673174 7.54839576 -1.20043046 3.9374119 0 0 Z " fill="#A5C8EE" transform="translate(508,498)"/>
<path d="M0 0 C3.29240875 2.79854744 5.03562946 6.20673275 7 10 C7 10.99 7 11.98 7 13 C7.66 13 8.32 13 9 13 C12 18.75 12 18.75 12 21 C12.66 21 13.32 21 14 21 C14 21.66 14 22.32 14 23 C14.66 23 15.32 23 16 23 C16 23.66 16 24.32 16 25 C16.66 25 17.32 25 18 25 C18 25.66 18 26.32 18 27 C18.66 27 19.32 27 20 27 C20 27.66 20 28.32 20 29 C20.66 29 21.32 29 22 29 C22 29.66 22 30.32 22 31 C24.31 31.33 26.62 31.66 29 32 C29 32.66 29 33.32 29 34 C29.99 34 30.98 34 32 34 C32 35.32 32 36.64 32 38 C30.68 38 29.36 38 28 38 C28 37.34 28 36.68 28 36 C27.01 36 26.02 36 25 36 C25 35.34 25 34.68 25 34 C24.01 34 23.02 34 22 34 C22 33.34 22 32.68 22 32 C21.34 32 20.68 32 20 32 C20 31.34 20 30.68 20 30 C19.34 30 18.68 30 18 30 C18 29.34 18 28.68 18 28 C17.34 28 16.68 28 16 28 C16 27.34 16 26.68 16 26 C15.34 26 14.68 26 14 26 C14 25.34 14 24.68 14 24 C13.34 24 12.68 24 12 24 C12 23.34 12 22.68 12 22 C11.34 22 10.68 22 10 22 C10 20.68 10 19.36 10 18 C9.34 18 8.68 18 8 18 C6.66180502 15.3773768 5.3292849 12.75213401 4 10.125 C3.6184375 9.37863281 3.236875 8.63226562 2.84375 7.86328125 C2.4828125 7.14785156 2.121875 6.43242188 1.75 5.6953125 C1.41484375 5.03547363 1.0796875 4.37563477 0.734375 3.69580078 C0 2 0 2 0 0 Z " fill="#9EC6EF" transform="translate(424,809)"/>
<path d="M0 0 C0.66 0 1.32 0 2 0 C2.51864829 21.14932452 -1.11931199 41.24829805 -5 62 C-5.33 62 -5.66 62 -6 62 C-5.71509485 53.97353427 -5.41583443 46.15641034 -3.5625 38.3125 C-0.78367332 25.83502334 -0.68808705 12.73022808 0 0 Z " fill="#AED0EF" transform="translate(473,495)"/>
<path d="M0 0 C0.33 0 0.66 0 1 0 C0.28332814 19.63680888 -4.94514366 39.2071733 -10.625 57.9375 C-10.83116943 58.63069336 -11.03733887 59.32388672 -11.24975586 60.03808594 C-11.77264424 61.71217725 -12.37932593 63.35964709 -13 65 C-13.99 65.495 -13.99 65.495 -15 66 C-14.56624483 62.52995867 -13.86645821 59.66007544 -12.58203125 56.390625 C-10.8124846 51.76674806 -9.89011287 47.10812521 -9 42.25 C-7.95093954 36.74681411 -6.88608336 31.29012315 -5.4375 25.875 C-3.88503323 19.97053621 -2.935087 13.99193852 -2.00170898 7.96435547 C-1.09711988 2.19423976 -1.09711988 2.19423976 0 0 Z " fill="#BAD6F2" transform="translate(526,569)"/>
<path d="M0 0 C1.98 0 3.96 0 6 0 C6 0.66 6 1.32 6 2 C6.66 2 7.32 2 8 2 C12.38502388 9.62612848 12.14784435 17.45243544 12.0625 26 C12.05798828 26.87011719 12.05347656 27.74023438 12.04882812 28.63671875 C12.0371736 30.75784293 12.01924357 32.8789311 12 35 C11.67 35 11.34 35 11 35 C10.94465088 34.30438965 10.88930176 33.6087793 10.83227539 32.89208984 C10.57833145 29.71950822 10.32045179 26.54725817 10.0625 23.375 C9.97548828 22.28058594 9.88847656 21.18617188 9.79882812 20.05859375 C9.71181641 18.99511719 9.62480469 17.93164062 9.53515625 16.8359375 C9.456604 15.86188965 9.37805176 14.8878418 9.29711914 13.88427734 C8.98912062 10.89438866 8.52387687 7.95904078 8 5 C7.34 5 6.68 5 6 5 C6 4.34 6 3.68 6 3 C4.35 3 2.7 3 1 3 C1 3.66 1 4.32 1 5 C-0.32 5 -1.64 5 -3 5 C-3.33 6.32 -3.66 7.64 -4 9 C-4.66 9 -5.32 9 -6 9 C-6.66 10.98 -7.32 12.96 -8 15 C-8.33 15 -8.66 15 -9 15 C-8.67 12.69 -8.34 10.38 -8 8 C-7.34 8 -6.68 8 -6 8 C-6 7.34 -6 6.68 -6 6 C-5.34 6 -4.68 6 -4 6 C-4 5.34 -4 4.68 -4 4 C-3.34 4 -2.68 4 -2 4 C-1.34 2.68 -0.68 1.36 0 0 Z " fill="#C3DAF2" transform="translate(543,412)"/>
<path d="M0 0 C0 0.66 0 1.32 0 2 C0.66 2 1.32 2 2 2 C2 2.99 2 3.98 2 5 C1.34 5 0.68 5 0 5 C0 4.34 0 3.68 0 3 C-1.65 3 -3.3 3 -5 3 C-5 2.34 -5 1.68 -5 1 C-8.3 1 -11.6 1 -15 1 C-15 1.66 -15 2.32 -15 3 C-16.65 3 -18.3 3 -20 3 C-20 3.66 -20 4.32 -20 5 C-20.99 5 -21.98 5 -23 5 C-23 5.66 -23 6.32 -23 7 C-23.66 7 -24.32 7 -25 7 C-25 6.01 -25 5.02 -25 4 C-24.34 4 -23.68 4 -23 4 C-22.67 3.01 -22.34 2.02 -22 1 C-15.24685712 -2.87946506 -7.06529485 -3.76815725 0 0 Z " fill="#8EC0EE" transform="translate(508,350)"/>
<path d="M0 0 C0.66 0 1.32 0 2 0 C1.38367054 4.95998472 -0.79835629 8.93671966 -3.0625 13.3125 C-3.43955078 14.05306641 -3.81660156 14.79363281 -4.20507812 15.55664062 C-5.13128157 17.37387522 -6.06490629 19.18732404 -7 21 C-7.66 21 -8.32 21 -9 21 C-9.33 22.32 -9.66 23.64 -10 25 C-10.66 25 -11.32 25 -12 25 C-12 25.66 -12 26.32 -12 27 C-12.66 27 -13.32 27 -14 27 C-14 27.66 -14 28.32 -14 29 C-14.66 29 -15.32 29 -16 29 C-16 29.66 -16 30.32 -16 31 C-16.66 31 -17.32 31 -18 31 C-18 31.66 -18 32.32 -18 33 C-18.66 33 -19.32 33 -20 33 C-20 33.66 -20 34.32 -20 35 C-20.99 35 -21.98 35 -23 35 C-23 34.01 -23 33.02 -23 32 C-22.01 32 -21.02 32 -20 32 C-20 31.34 -20 30.68 -20 30 C-19.34 30 -18.68 30 -18 30 C-18 29.34 -18 28.68 -18 28 C-17.34 28 -16.68 28 -16 28 C-16 27.34 -16 26.68 -16 26 C-15.34 26 -14.68 26 -14 26 C-14 25.34 -14 24.68 -14 24 C-13.34 24 -12.68 24 -12 24 C-12 23.34 -12 22.68 -12 22 C-11.34 22 -10.68 22 -10 22 C-9.71125 21.0925 -9.4225 20.185 -9.125 19.25 C-8.23468224 16.67797092 -7.28505587 14.38653234 -6 12 C-5.34 12 -4.68 12 -4 12 C-4 10.68 -4 9.36 -4 8 C-3.34 8 -2.68 8 -2 8 C-2 6.68 -2 5.36 -2 4 C-1.34 4 -0.68 4 0 4 C0 2.68 0 1.36 0 0 Z " fill="#B5D5F3" transform="translate(512,521)"/>
<path d="M0 0 C0.33 0 0.66 0 1 0 C3.38776806 32.51428851 3.38776806 32.51428851 3 46 C2.01 46.495 2.01 46.495 1 47 C-0.41873179 31.3686158 -0.09599524 15.67823776 0 0 Z " fill="#76ACE5" transform="translate(402,652)"/>
<path d="M0 0 C5.28 0 10.56 0 16 0 C16 0.99 16 1.98 16 3 C2.14 3 -11.72 3 -26 3 C-26 2.67 -26 2.34 -26 2 C-17.42 2 -8.84 2 0 2 C0 1.34 0 0.68 0 0 Z " fill="#378BE0" transform="translate(549,207)"/>
<path d="M0 0 C8.24230571 8.24230571 11.08015957 31.01747129 11.125 42.25 C11.08375 43.1575 11.0425 44.065 11 45 C9.26841432 41.9358772 8.63829369 39.35255132 8.1875 35.875 C6.68610172 26.1099056 3.72025034 16.64311851 0.84375 7.20703125 C0 4 0 4 0 0 Z " fill="#C6DFF5" transform="translate(604,259)"/>
<path d="M0 0 C1 3 1 3 -0.21484375 5.91796875 C-0.78332031 6.99691406 -1.35179687 8.07585938 -1.9375 9.1875 C-2.50339844 10.27417969 -3.06929688 11.36085938 -3.65234375 12.48046875 C-4.09707031 13.31191406 -4.54179687 14.14335938 -5 15 C-5.66 15 -6.32 15 -7 15 C-7.33 16.32 -7.66 17.64 -8 19 C-8.66 19 -9.32 19 -10 19 C-10.66 21.31 -11.32 23.62 -12 26 C-13.98 26.33 -15.96 26.66 -18 27 C-18 26.01 -18 25.02 -18 24 C-17.34 24 -16.68 24 -16 24 C-16 23.34 -16 22.68 -16 22 C-15.01 22 -14.02 22 -13 22 C-12.67 20.68 -12.34 19.36 -12 18 C-11.34 18 -10.68 18 -10 18 C-10 17.34 -10 16.68 -10 16 C-9.34 16 -8.68 16 -8 16 C-7.34 14.02 -6.68 12.04 -6 10 C-5.34 10 -4.68 10 -4 10 C-4 8.68 -4 7.36 -4 6 C-3.34 6 -2.68 6 -2 6 C-1.34 4.02 -0.68 2.04 0 0 Z " fill="#C6E1F7" transform="translate(502,657)"/>
<path d="M0 0 C1.73169596 3.1622274 2.7128976 6.26742722 3.625 9.75 C3.88539063 10.73484375 4.14578125 11.7196875 4.4140625 12.734375 C4.60742188 13.48203125 4.80078125 14.2296875 5 15 C5.99 14.67 6.98 14.34 8 14 C9.99673484 13.64763503 11.99650739 13.31165441 14 13 C13.6875 14.9375 13.6875 14.9375 13 17 C12.01 17.33 11.02 17.66 10 18 C10 18.66 10 19.32 10 20 C8.02 20 6.04 20 4 20 C1.44672896 13.16088115 -0.5644718 7.33813334 0 0 Z " fill="#85B4E7" transform="translate(581,621)"/>
<path d="M0 0 C0.66 0 1.32 0 2 0 C2.03758423 1.46022583 2.03758423 1.46022583 2.07592773 2.94995117 C2.17037278 6.57491347 2.27050167 10.19970066 2.37231445 13.82446289 C2.41552339 15.39082736 2.45720791 16.95723467 2.49731445 18.52368164 C2.55535871 20.7802418 2.61895302 23.03658908 2.68359375 25.29296875 C2.70866249 26.33701118 2.70866249 26.33701118 2.73423767 27.40214539 C2.84408419 31.03872797 3.15721991 34.45792427 4 38 C3.34 38 2.68 38 2 38 C-1.53684799 30.92630401 -0.11558304 20.61820743 -0.0625 12.9375 C-0.05798828 11.69033203 -0.05347656 10.44316406 -0.04882812 9.15820312 C-0.03713163 6.10541779 -0.02074086 3.05273502 0 0 Z " fill="#C8DEF3" transform="translate(461,602)"/>
<path d="M0 0 C0.66 0 1.32 0 2 0 C0.74848833 5.93273854 -0.74194123 11.743014 -2.4375 17.5625 C-4.83606685 25.96058518 -6.55739312 34.39127278 -8 43 C-8.33 43 -8.66 43 -9 43 C-8.72863897 28.0998123 -4.85309126 14.01093749 0 0 Z " fill="#B4D4F3" transform="translate(450,410)"/>
<path d="M0 0 C0.33 0 0.66 0 1 0 C0.40891952 7.56423263 -1.32645454 14.51984747 -3.375 21.8125 C-3.98805883 24.02704515 -4.60004353 26.24188794 -5.2109375 28.45703125 C-5.50838867 29.53291504 -5.80583984 30.60879883 -6.11230469 31.71728516 C-7.48473204 36.79254867 -8.75057007 41.89325798 -10 47 C-10.33 47 -10.66 47 -11 47 C-11.18258988 42.03229596 -10.65748954 38.05280336 -9.1875 33.3125 C-7.85700437 28.89151978 -6.58725014 24.48715943 -5.5 20 C-3.85569446 13.27742487 -1.93605244 6.64350991 0 0 Z " fill="#AACBEC" transform="translate(494,475)"/>
<path d="M0 0 C1.42968495 3.79848781 0.52646719 6.13385995 -0.8359375 9.8671875 C-1.24070312 11.00027344 -1.64546875 12.13335937 -2.0625 13.30078125 C-2.7121875 15.07001953 -2.7121875 15.07001953 -3.375 16.875 C-4.22055934 19.20413163 -5.06185495 21.53481652 -5.8984375 23.8671875 C-6.27661621 24.89956543 -6.65479492 25.93194336 -7.04443359 26.99560547 C-7.99809499 29.99401046 -8.5615884 32.88814868 -9 36 C-9.99 36 -10.98 36 -12 36 C-12 34.35 -12 32.7 -12 31 C-11.34 31 -10.68 31 -10 31 C-9.85304688 30.34257812 -9.70609375 29.68515625 -9.5546875 29.0078125 C-7.97837931 22.32209154 -6.04340466 15.82808294 -3.875 9.3125 C-3.60929199 8.51021973 -3.34358398 7.70793945 -3.06982422 6.88134766 C-1.12938977 1.12938977 -1.12938977 1.12938977 0 0 Z " fill="#84B5E8" transform="translate(495,443)"/>
<path d="M0 0 C1.65 0 3.3 0 5 0 C5 0.66 5 1.32 5 2 C5.99 2 6.98 2 8 2 C9.23004981 4.46009963 9.13314027 6.13172806 9.125 8.875 C9.12757813 9.73867188 9.13015625 10.60234375 9.1328125 11.4921875 C9.01023921 13.80665971 8.64966445 15.78289116 8 18 C7.34 18 6.68 18 6 18 C6.33 13.71 6.66 9.42 7 5 C6.34 5 5.68 5 5 5 C5 4.34 5 3.68 5 3 C3.02 3 1.04 3 -1 3 C-1.99 6.3 -2.98 9.6 -4 13 C-4.33 13 -4.66 13 -5 13 C-4.25 5.375 -4.25 5.375 -2 2 C-1.34 2 -0.68 2 0 2 C0 1.34 0 0.68 0 0 Z " fill="#A6CDF2" transform="translate(591,398)"/>
<path d="M0 0 C2.75 -0.375 2.75 -0.375 6 0 C10.96219259 5.78922469 12.29936801 11.51579969 12 19 C10.45921385 16.01559439 9.13026724 12.98992242 7.875 9.875 C7.52179688 9.00617188 7.16859375 8.13734375 6.8046875 7.2421875 C6 5 6 5 6 3 C4.02 3 2.04 3 0 3 C0 3.66 0 4.32 0 5 C-0.66 5 -1.32 5 -2 5 C-2 5.66 -2 6.32 -2 7 C-2.66 7 -3.32 7 -4 7 C-4.33 8.32 -4.66 9.64 -5 11 C-4.67 8.69 -4.34 6.38 -4 4 C-3.34 4 -2.68 4 -2 4 C-1.34 2.68 -0.68 1.36 0 0 Z " fill="#A9CDF0" transform="translate(472,454)"/>
<path d="M0 0 C2.4375 0.75 2.4375 0.75 5 2 C5.33 3.32 5.66 4.64 6 6 C11.445 5.505 11.445 5.505 17 5 C16.67 6.65 16.34 8.3 16 10 C12.7 10 9.4 10 6 10 C6 9.34 6 8.68 6 8 C5.34 8 4.68 8 4 8 C4 7.34 4 6.68 4 6 C3.34 6 2.68 6 2 6 C1.34 4.02 0.68 2.04 0 0 Z " fill="#75A7DE" transform="translate(460,653)"/>
<path d="M0 0 C0.66 0 1.32 0 2 0 C2 0.66 2 1.32 2 2 C2.66 2 3.32 2 4 2 C4.33 3.32 4.66 4.64 5 6 C5.66 6 6.32 6 7 6 C7.33 7.32 7.66 8.64 8 10 C8.66 10 9.32 10 10 10 C10.66 11.98 11.32 13.96 12 16 C12.66 16 13.32 16 14 16 C15.03041513 17.95330868 16.0490893 19.91281528 17.0625 21.875 C17.63097656 22.96554688 18.19945312 24.05609375 18.78515625 25.1796875 C19.18605469 26.11039063 19.58695313 27.04109375 20 28 C19.67 28.66 19.34 29.32 19 30 C18.34 28.35 17.68 26.7 17 25 C16.34 25 15.68 25 15 25 C14.16180842 23.37750059 13.3295884 21.75191503 12.5 20.125 C12.0359375 19.22007812 11.571875 18.31515625 11.09375 17.3828125 C10 15 10 15 10 13 C9.34 13 8.68 13 8 13 C7.67 11.68 7.34 10.36 7 9 C6.34 9 5.68 9 5 9 C5 8.34 5 7.68 5 7 C4.34 7 3.68 7 3 7 C2.67 5.68 2.34 4.36 2 3 C1.34 3 0.68 3 0 3 C0 2.01 0 1.02 0 0 Z " fill="#BDDDF6" transform="translate(580,217)"/>
<path d="M0 0 C0.66 0.33 1.32 0.66 2 1 C2.05429278 3.70860665 2.09381211 6.41610901 2.125 9.125 C2.15013672 10.26582031 2.15013672 10.26582031 2.17578125 11.4296875 C2.21546246 16.03270731 1.75907577 19.66464004 0 24 C-0.99 24 -1.98 24 -3 24 C-5.10770759 21.11165997 -6 19.61537605 -6 16 C-5.34 16 -4.68 16 -4 16 C-4 16.66 -4 17.32 -4 18 C-3.34 18 -2.68 18 -2 18 C-2 18.66 -2 19.32 -2 20 C-1.34 20 -0.68 20 0 20 C0 13.4 0 6.8 0 0 Z " fill="#84B5E8" transform="translate(470,625)"/>
<path d="M0 0 C0.66 0 1.32 0 2 0 C2 0.99 2 1.98 2 3 C1.34 3 0.68 3 0 3 C0 3.66 0 4.32 0 5 C-0.66 5 -1.32 5 -2 5 C-2 5.66 -2 6.32 -2 7 C-2.66 7 -3.32 7 -4 7 C-4 7.66 -4 8.32 -4 9 C-4.66 9 -5.32 9 -6 9 C-6.33 10.32 -6.66 11.64 -7 13 C-7.66 13 -8.32 13 -9 13 C-9.33 14.32 -9.66 15.64 -10 17 C-10.66 17 -11.32 17 -12 17 C-12.4021875 18.299375 -12.4021875 18.299375 -12.8125 19.625 C-13.97111987 22.91791964 -15.38209839 25.91127875 -17 29 C-18 26 -18 26 -16.56640625 22.64453125 C-15.90851193 21.3619696 -15.24010257 20.08475943 -14.5625 18.8125 C-14.22412109 18.15830078 -13.88574219 17.50410156 -13.53710938 16.83007812 C-12.70030902 15.21540701 -11.85130254 13.60707237 -11 12 C-10.34 12 -9.68 12 -9 12 C-9 11.34 -9 10.68 -9 10 C-8.34 10 -7.68 10 -7 10 C-6.67 8.68 -6.34 7.36 -6 6 C-5.34 6 -4.68 6 -4 6 C-4 5.34 -4 4.68 -4 4 C-3.34 4 -2.68 4 -2 4 C-1.34 2.68 -0.68 1.36 0 0 Z " fill="#B1D3F3" transform="translate(480,356)"/>
<path d="M0 0 C0.33 0 0.66 0 1 0 C1.20964562 6.44077924 1.02252042 11.8200765 -1 18 C-1.51643199 20.55037952 -1.98552557 23.10543516 -2.4375 25.66796875 C-3.00404668 28.01677685 -3.83644211 29.89105133 -5 32 C-3.47150838 7.78547486 -3.47150838 7.78547486 0 0 Z " fill="#88BBEB" transform="translate(542,472)"/>
<path d="M0 0 C0.99 0 1.98 0 3 0 C3.26404456 6.86515862 2.25841946 13.25846717 1 20 C0.67 20 0.34 20 0 20 C-0.33 18.35 -0.66 16.7 -1 15 C-1.66 16.32 -2.32 17.64 -3 19 C-2.54240047 12.4491015 -1.7899856 6.3246158 0 0 Z " fill="#83B7E7" transform="translate(580,459)"/>
<path d="M0 0 C1.32 0 2.64 0 4 0 C3.625 1.9375 3.625 1.9375 3 4 C0.04335481 5.4783226 -2.74229737 5.06032783 -6 5 C-6.33 8.96 -6.66 12.92 -7 17 C-7.66 17 -8.32 17 -9 17 C-8.47462276 11.9697924 -7.89405214 6.98114761 -7 2 C-4.69 2 -2.38 2 0 2 C0 1.34 0 0.68 0 0 Z " fill="#9BC5ED" transform="translate(484,555)"/>
<path d="M0 0 C0.33 0 0.66 0 1 0 C1.02918874 3.70831663 1.04686218 7.41660342 1.0625 11.125 C1.07087891 12.17171875 1.07925781 13.2184375 1.08789062 14.296875 C1.10375207 19.3090905 1.08177213 24.07665912 0 29 C-0.33 29 -0.66 29 -1 29 C-1.2278425 25.48014853 -1.42872813 21.95924178 -1.625 18.4375 C-1.68945312 17.44685547 -1.75390625 16.45621094 -1.8203125 15.43554688 C-2.12046555 9.78891763 -1.95630634 5.3238413 0 0 Z " fill="#1F7BD6" transform="translate(542,483)"/>
<path d="M0 0 C0 0.99 0 1.98 0 3 C-19.305 2.505 -19.305 2.505 -39 2 C-39 1.67 -39 1.34 -39 1 C-34.89240131 0.85559073 -30.78473596 0.71326278 -26.67700195 0.57275391 C-25.2834281 0.52480505 -23.88987274 0.47631538 -22.49633789 0.42724609 C-14.99551191 0.16349261 -7.5064086 -0.06650196 0 0 Z " fill="#3D88D9" transform="translate(566,846)"/>
<path d="M0 0 C0.33 0.66 0.66 1.32 1 2 C2.65 2 4.3 2 6 2 C8.58891544 5.82362896 8.09234813 9.60520538 7.75 14 C7.69005859 15.06734375 7.69005859 15.06734375 7.62890625 16.15625 C7.37364795 19.85404589 7.00849058 22.83909679 5 26 C4.86205046 18.93391809 5.25194283 12.02639415 6 5 C4.35 5 2.7 5 1 5 C0.67 3.35 0.34 1.7 0 0 Z " fill="#B6DAF3" transform="translate(534,429)"/>
<path d="M0 0 C0.66 0 1.32 0 2 0 C1.36004696 11.00174594 0.69572409 22.00163831 0 33 C-0.33 33 -0.66 33 -1 33 C-1.02913072 28.62501407 -1.04684286 24.25005326 -1.0625 19.875 C-1.07087891 18.6375 -1.07925781 17.4 -1.08789062 16.125 C-1.09111328 14.92617188 -1.09433594 13.72734375 -1.09765625 12.4921875 C-1.10289307 11.39245605 -1.10812988 10.29272461 -1.11352539 9.15966797 C-1.0008558 6.02381895 -0.58626376 3.07940617 0 0 Z " fill="#AACEEF" transform="translate(435,488)"/>
<path d="M0 0 C0.33 0 0.66 0 1 0 C1.31102785 6.80805411 1.26114472 12.66722505 -1.24609375 19.0625 C-2.00809398 21.02080111 -2.52963639 22.95414664 -3 25 C-3.66 25 -4.32 25 -5 25 C-4.87882812 24.34515625 -4.75765625 23.6903125 -4.6328125 23.015625 C-3.49754202 16.83276731 -2.44195635 10.64350774 -1.46484375 4.43359375 C-1 2 -1 2 0 0 Z " fill="#86BAEC" transform="translate(414,275)"/>
<path d="M0 0 C0.66 0 1.32 0 2 0 C2 0.99 2 1.98 2 3 C1.34 3 0.68 3 0 3 C-0.66 4.98 -1.32 6.96 -2 9 C-2.66 9 -3.32 9 -4 9 C-4.33 10.32 -4.66 11.64 -5 13 C-5.66 13 -6.32 13 -7 13 C-7.33 14.32 -7.66 15.64 -8 17 C-8.99 17 -9.98 17 -11 17 C-11 17.66 -11 18.32 -11 19 C-11.66 19 -12.32 19 -13 19 C-13 18.01 -13 17.02 -13 16 C-12.34 16 -11.68 16 -11 16 C-10.34 14.68 -9.68 13.36 -9 12 C-8.34 12 -7.68 12 -7 12 C-7 11.34 -7 10.68 -7 10 C-6.34 10 -5.68 10 -5 10 C-4.34 8.02 -3.68 6.04 -3 4 C-2.34 4 -1.68 4 -1 4 C-0.67 2.68 -0.34 1.36 0 0 Z " fill="#B6D6F4" transform="translate(490,642)"/>
<path d="M0 0 C0.33 0.66 0.66 1.32 1 2 C0.67 2.66 0.34 3.32 0 4 C-0.66 4 -1.32 4 -2 4 C-2.433125 5.36125 -2.433125 5.36125 -2.875 6.75 C-3.76531776 9.32202908 -4.71494413 11.61346766 -6 14 C-6.66 14 -7.32 14 -8 14 C-8.19335938 14.71027344 -8.38671875 15.42054688 -8.5859375 16.15234375 C-8.84632813 17.07144531 -9.10671875 17.99054688 -9.375 18.9375 C-9.63023437 19.85402344 -9.88546875 20.77054687 -10.1484375 21.71484375 C-11 24 -11 24 -13 25 C-12.45318976 19.99399078 -10.75859667 16.02818933 -8.4375 11.625 C-8.10814453 10.98433594 -7.77878906 10.34367187 -7.43945312 9.68359375 C-6.63360518 8.11861368 -5.81781507 6.55875979 -5 5 C-4.34 5 -3.68 5 -3 5 C-2.87625 4.360625 -2.7525 3.72125 -2.625 3.0625 C-2.41875 2.381875 -2.2125 1.70125 -2 1 C-1.34 0.67 -0.68 0.34 0 0 Z " fill="#AAD0F1" transform="translate(481,388)"/>
<path d="M0 0 C3.29240875 2.79854744 5.03562946 6.20673275 7 10 C7 10.99 7 11.98 7 13 C7.66 13 8.32 13 9 13 C12 18.75 12 18.75 12 21 C12.66 21 13.32 21 14 21 C14.33 22.65 14.66 24.3 15 26 C14.67 25.34 14.34 24.68 14 24 C13.34 24 12.68 24 12 24 C12 23.34 12 22.68 12 22 C11.34 22 10.68 22 10 22 C10 20.68 10 19.36 10 18 C9.34 18 8.68 18 8 18 C6.66180502 15.3773768 5.3292849 12.75213401 4 10.125 C3.6184375 9.37863281 3.236875 8.63226562 2.84375 7.86328125 C2.4828125 7.14785156 2.121875 6.43242188 1.75 5.6953125 C1.41484375 5.03547363 1.0796875 4.37563477 0.734375 3.69580078 C0 2 0 2 0 0 Z " fill="#B2D0EF" transform="translate(424,809)"/>
<path d="M0 0 C1.5 1.375 1.5 1.375 3 3 C3 3.66 3 4.32 3 5 C3.66 5 4.32 5 5 5 C5.33 6.32 5.66 7.64 6 9 C6.66 9 7.32 9 8 9 C8.26618595 15.95041086 7.6120509 22.23514355 6 29 C5.67 29 5.34 29 5 29 C4.89650183 22.58311325 5.25492456 16.37305598 6 10 C5.34 10 4.68 10 4 10 C3.32845067 8.71086513 2.66291141 7.41859796 2 6.125 C1.62875 5.40570312 1.2575 4.68640625 0.875 3.9453125 C0 2 0 2 0 0 Z " fill="#BED7F1" transform="translate(456,525)"/>
<path d="M0 0 C1.23837126 3.71511377 0.24801296 5.30894109 -1.1796875 8.8203125 C-1.96231563 10.89986725 -2.47323275 12.89310575 -2.9375 15.0625 C-3.90163112 19.22392066 -5.74325749 22.38921199 -8 26 C-9 24 -9 24 -8.109375 21.05859375 C-7.66078125 19.86363281 -7.2121875 18.66867187 -6.75 17.4375 C-5.18033354 13.20799998 -3.63528605 8.98188675 -2.25 4.6875 C-1 1 -1 1 0 0 Z " fill="#89BAE9" transform="translate(609,780)"/>
<path d="M0 0 C1.35120303 4.05360908 0.10341051 7.02842386 -1 11 C-1.36103964 12.42600934 -1.71785145 13.85309613 -2.0703125 15.28125 C-3.046875 19.1875 -4.0234375 23.09375 -5 27 C-5.33 27 -5.66 27 -6 27 C-5.7258178 20.40591814 -4.71061835 14.2303588 -3 7.875 C-2.82178711 7.21169678 -2.64357422 6.54839355 -2.45996094 5.86499023 C-1.14252057 1.14252057 -1.14252057 1.14252057 0 0 Z " fill="#B4D4F1" transform="translate(575,454)"/>
<path d="M0 0 C0.33 0 0.66 0 1 0 C0.37650437 5.74231776 -1.09136135 10.91184629 -2.9375 16.375 C-3.20240234 17.19355469 -3.46730469 18.01210938 -3.74023438 18.85546875 C-3.99998047 19.63277344 -4.25972656 20.41007812 -4.52734375 21.2109375 C-4.76187256 21.91524902 -4.99640137 22.61956055 -5.23803711 23.34521484 C-6 25 -6 25 -8 26 C-7.32058766 20.23934889 -5.39116805 15.04884675 -3.4375 9.625 C-3.10814453 8.69816406 -2.77878906 7.77132812 -2.43945312 6.81640625 C-1.6307437 4.54264353 -0.81748642 2.2706187 0 0 Z " fill="#A5CBEF" transform="translate(423,247)"/>
<path d="M0 0 C1.27875 -0.061875 2.5575 -0.12375 3.875 -0.1875 C4.95394531 -0.23970703 4.95394531 -0.23970703 6.0546875 -0.29296875 C6.69664062 -0.19628906 7.33859375 -0.09960938 8 0 C8.66 0.99 9.32 1.98 10 3 C5.94691667 4.10789535 1.92888626 4.33731267 -2.25 4.5625 C-3.36761719 4.62727539 -3.36761719 4.62727539 -4.5078125 4.69335938 C-6.338349 4.79896725 -8.16915176 4.89994201 -10 5 C-10 4.34 -10 3.68 -10 3 C-9.36191406 2.95101562 -8.72382813 2.90203125 -8.06640625 2.8515625 C-7.24011719 2.77679688 -6.41382813 2.70203125 -5.5625 2.625 C-4.73878906 2.55539063 -3.91507812 2.48578125 -3.06640625 2.4140625 C-2.38449219 2.27742187 -1.70257813 2.14078125 -1 2 C-0.67 1.34 -0.34 0.68 0 0 Z " fill="#4D98E3" transform="translate(469,207)"/>
<path d="M0 0 C0.33 0.99 0.66 1.98 1 3 C0.34 3 -0.32 3 -1 3 C-1.66 4.98 -2.32 6.96 -3 9 C-3.66 9 -4.32 9 -5 9 C-5.2475 9.845625 -5.495 10.69125 -5.75 11.5625 C-7.13973627 15.38427474 -8.91120838 18.51868063 -11 22 C-11.33 20.68 -11.66 19.36 -12 18 C-11.34 18 -10.68 18 -10 18 C-10 16.68 -10 15.36 -10 14 C-9.34 14 -8.68 14 -8 14 C-7.71125 13.0925 -7.4225 12.185 -7.125 11.25 C-6.23468224 8.67797092 -5.28505587 6.38653234 -4 4 C-3.34 4 -2.68 4 -2 4 C-2 3.34 -2 2.68 -2 2 C-1.34 2 -0.68 2 0 2 C0 1.34 0 0.68 0 0 Z " fill="#BFDBF5" transform="translate(454,673)"/>
<path d="M0 0 C0.33 0 0.66 0 1 0 C1.33 3.63 1.66 7.26 2 11 C2.33 11 2.66 11 3 11 C3 14.63 3 18.26 3 22 C2.01 22 1.02 22 0 22 C0 14.74 0 7.48 0 0 Z " fill="#C0DBEF" transform="translate(552,535)"/>
<path d="M0 0 C0.33 0 0.66 0 1 0 C1.45630487 6.69247147 -0.25971443 12.57367717 -2 19 C-2.39982318 20.58233053 -2.79630378 22.1655146 -3.1875 23.75 C-3.455625 24.8225 -3.72375 25.895 -4 27 C-4.33 27 -4.66 27 -5 27 C-4.60378931 17.64942777 -2.42406618 8.98595695 0 0 Z " fill="#D0E4F6" transform="translate(568,482)"/>
<path d="M0 0 C0.66 0 1.32 0 2 0 C0.49958009 7.91130499 -1.82586893 15.59369417 -5 23 C-5.66 23.33 -6.32 23.66 -7 24 C-6.31184495 18.61671112 -4.69258365 13.73143827 -2.9375 8.625 C-2.51500977 7.37783203 -2.51500977 7.37783203 -2.08398438 6.10546875 C-1.39342899 4.06891559 -0.69727821 2.03426119 0 0 Z " fill="#C8DFF5" transform="translate(466,413)"/>
<path d="M0 0 C6.334012 7.23887086 6.5946037 15.82965609 7 25 C4.66196996 22.66196996 4.59260451 21.69072429 4.0625 18.5 C3.229816 13.91024581 2.02371639 9.5632441 0.5859375 5.12890625 C0 3 0 3 0 0 Z " fill="#B5D2EF" transform="translate(467,467)"/>
<path d="M0 0 C5.12583611 -0.10251672 9.94997778 -0.03590199 15 1 C15 1.66 15 2.32 15 3 C10.05 3 5.1 3 0 3 C0 2.01 0 1.02 0 0 Z " fill="#CEE5F9" transform="translate(466,848)"/>
<path d="M0 0 C0.33 0.66 0.66 1.32 1 2 C0.34 2 -0.32 2 -1 2 C-1 2.66 -1 3.32 -1 4 C-1.66 4 -2.32 4 -3 4 C-3.33 5.32 -3.66 6.64 -4 8 C-4.66 8 -5.32 8 -6 8 C-6.268125 8.928125 -6.53625 9.85625 -6.8125 10.8125 C-7.91148371 13.76240366 -8.62418561 15.05615186 -11 17 C-11.33 16.34 -11.66 15.68 -12 15 C-11.0625 12.875 -11.0625 12.875 -10 11 C-9.34 11 -8.68 11 -8 11 C-8 9.68 -8 8.36 -8 7 C-7.34 7 -6.68 7 -6 7 C-6 6.34 -6 5.68 -6 5 C-5.34 5 -4.68 5 -4 5 C-3.896875 4.360625 -3.79375 3.72125 -3.6875 3.0625 C-3.460625 2.381875 -3.23375 1.70125 -3 1 C-2.01 0.67 -1.02 0.34 0 0 Z " fill="#B4D6F3" transform="translate(440,222)"/>
<path d="M0 0 C0.33 0.99 0.66 1.98 1 3 C0.67 3.66 0.34 4.32 0 5 C-0.66 5 -1.32 5 -2 5 C-2 5.66 -2 6.32 -2 7 C-2.66 7 -3.32 7 -4 7 C-4 7.66 -4 8.32 -4 9 C-4.66 9 -5.32 9 -6 9 C-6 9.66 -6 10.32 -6 11 C-6.66 11 -7.32 11 -8 11 C-8 11.66 -8 12.32 -8 13 C-8.99 13 -9.98 13 -11 13 C-11 12.01 -11 11.02 -11 10 C-10.01 10 -9.02 10 -8 10 C-8 9.34 -8 8.68 -8 8 C-7.34 8 -6.68 8 -6 8 C-6 7.34 -6 6.68 -6 6 C-5.34 6 -4.68 6 -4 6 C-4 5.34 -4 4.68 -4 4 C-3.34 4 -2.68 4 -2 4 C-2 3.34 -2 2.68 -2 2 C-1.34 2 -0.68 2 0 2 C0 1.34 0 0.68 0 0 Z " fill="#CAE3F8" transform="translate(500,543)"/>
<path d="M0 0 C1 3 1 3 -0.43359375 6.35546875 C-1.09148807 7.6380304 -1.75989743 8.91524057 -2.4375 10.1875 C-2.77587891 10.84169922 -3.11425781 11.49589844 -3.46289062 12.16992188 C-4.29969098 13.78459299 -5.14869746 15.39292763 -6 17 C-6.33 17 -6.66 17 -7 17 C-6.5188509 11.22621075 -4.81532819 7.04140164 -2 2 C-1.34 2 -0.68 2 0 2 C0 1.34 0 0.68 0 0 Z " fill="#97C4EE" transform="translate(511,408)"/>
<path d="M0 0 C3.96 0 7.92 0 12 0 C12 0.99 12 1.98 12 3 C8.04 3 4.08 3 0 3 C0 2.01 0 1.02 0 0 Z " fill="#BCDBF5" transform="translate(553,207)"/>
<path d="M0 0 C5.77759884 -0.12036664 11.27959989 0.1679418 17 1 C17 1.33 17 1.66 17 2 C8.585 2.495 8.585 2.495 0 3 C0 2.01 0 1.02 0 0 Z " fill="#76AEE7" transform="translate(458,846)"/>
<path d="M0 0 C0.66 0 1.32 0 2 0 C2 1.98 2 3.96 2 6 C2.66 6.33 3.32 6.66 4 7 C4.33 5.68 4.66 4.36 5 3 C5.66 3 6.32 3 7 3 C6.67 4.65 6.34 6.3 6 8 C5.34 8 4.68 8 4 8 C4 8.66 4 9.32 4 10 C3.01 10 2.02 10 1 10 C-0.60725635 6.78548731 -0.05748185 3.56387464 0 0 Z " fill="#AED0F0" transform="translate(433,696)"/>
<path d="M0 0 C0.66 0 1.32 0 2 0 C1.6875 1.9375 1.6875 1.9375 1 4 C0.01 4.33 -0.98 4.66 -2 5 C-2 5.66 -2 6.32 -2 7 C-3.98 7 -5.96 7 -8 7 C-8.33 5.68 -8.66 4.36 -9 3 C-6.69 3.33 -4.38 3.66 -2 4 C-2 3.34 -2 2.68 -2 2 C-1.34 2 -0.68 2 0 2 C0 1.34 0 0.68 0 0 Z " fill="#C1DBF4" transform="translate(593,634)"/>
<path d="M0 0 C0.66 0.99 1.32 1.98 2 3 C3.32 3 4.64 3 6 3 C6 2.34 6 1.68 6 1 C6.66 1 7.32 1 8 1 C8 1.99 8 2.98 8 4 C7.34 4 6.68 4 6 4 C6 4.66 6 5.32 6 6 C4.68 6 3.36 6 2 6 C2 6.66 2 7.32 2 8 C1.34 8 0.68 8 0 8 C-1.125 2.25 -1.125 2.25 0 0 Z " fill="#C1DCF3" transform="translate(480,533)"/>
<path d="M0 0 C1 3 1 3 0.0625 5.1875 C-0.288125 5.785625 -0.63875 6.38375 -1 7 C-1.66 7 -2.32 7 -3 7 C-3 7.66 -3 8.32 -3 9 C-3.66 9 -4.32 9 -5 9 C-5 9.66 -5 10.32 -5 11 C-5.66 11 -6.32 11 -7 11 C-7 11.66 -7 12.32 -7 13 C-7.99 12.67 -8.98 12.34 -10 12 C-9.67 11.34 -9.34 10.68 -9 10 C-8.34 10 -7.68 10 -7 10 C-7 9.34 -7 8.68 -7 8 C-6.34 8 -5.68 8 -5 8 C-5 7.34 -5 6.68 -5 6 C-4.34 6 -3.68 6 -3 6 C-2.67 4.68 -2.34 3.36 -2 2 C-1.34 2 -0.68 2 0 2 C0 1.34 0 0.68 0 0 Z " fill="#9FC4ED" transform="translate(497,522)"/>
<path d="M0 0 C0.66 0 1.32 0 2 0 C2 0.66 2 1.32 2 2 C2.66 2 3.32 2 4 2 C5.03041513 3.95330868 6.0490893 5.91281528 7.0625 7.875 C7.63097656 8.96554688 8.19945312 10.05609375 8.78515625 11.1796875 C9.38650391 12.57574219 9.38650391 12.57574219 10 14 C9.67 14.66 9.34 15.32 9 16 C8.34 14.35 7.68 12.7 7 11 C6.34 11 5.68 11 5 11 C3.35 7.37 1.7 3.74 0 0 Z " fill="#B0D5F3" transform="translate(590,231)"/>
<path d="M0 0 C0.99 0.33 1.98 0.66 3 1 C3 1.66 3 2.32 3 3 C1.68 3 0.36 3 -1 3 C-1.33 4.32 -1.66 5.64 -2 7 C-2.66 7 -3.32 7 -4 7 C-4.66 8.98 -5.32 10.96 -6 13 C-6.33 13 -6.66 13 -7 13 C-6.67 10.69 -6.34 8.38 -6 6 C-5.34 6 -4.68 6 -4 6 C-4 5.34 -4 4.68 -4 4 C-3.34 4 -2.68 4 -2 4 C-2 3.34 -2 2.68 -2 2 C-1.34 2 -0.68 2 0 2 C0 1.34 0 0.68 0 0 Z " fill="#C0DCF6" transform="translate(541,414)"/>
<path d="M0 0 C2 2 2 2 2.23046875 4.2421875 C2.21628906 5.11101562 2.20210937 5.97984375 2.1875 6.875 C2.18105469 7.73867188 2.17460938 8.60234375 2.16796875 9.4921875 C2.01393667 11.79192226 1.64161776 13.79283489 1 16 C0.34 16 -0.32 16 -1 16 C-0.67 10.72 -0.34 5.44 0 0 Z " fill="#88B8E9" transform="translate(598,400)"/>
<path d="M0 0 C0.66 0 1.32 0 2 0 C2 0.99 2 1.98 2 3 C1.34 3 0.68 3 0 3 C0 3.66 0 4.32 0 5 C-0.66 5 -1.32 5 -2 5 C-2.33 6.32 -2.66 7.64 -3 9 C-3.66 9 -4.32 9 -5 9 C-5 9.66 -5 10.32 -5 11 C-5.99 11.33 -6.98 11.66 -8 12 C-7.67 10.68 -7.34 9.36 -7 8 C-6.34 8 -5.68 8 -5 8 C-4.67 6.68 -4.34 5.36 -4 4 C-3.34 4 -2.68 4 -2 4 C-2 3.34 -2 2.68 -2 2 C-1.34 2 -0.68 2 0 2 C0 1.34 0 0.68 0 0 Z " fill="#D7ECFB" transform="translate(488,377)"/>
<path d="M0 0 C2.97 0 5.94 0 9 0 C8.67 0.99 8.34 1.98 8 3 C5.03 3 2.06 3 -1 3 C-1 3.66 -1 4.32 -1 5 C-1.66 4.67 -2.32 4.34 -3 4 C-2.67 3.34 -2.34 2.68 -2 2 C-1.34 2 -0.68 2 0 2 C0 1.34 0 0.68 0 0 Z " fill="#C1DFF8" transform="translate(460,207)"/>
<path d="M0 0 C3.3 0 6.6 0 10 0 C10 0.99 10 1.98 10 3 C6.7 3 3.4 3 0 3 C0 2.01 0 1.02 0 0 Z " fill="#D4E7F7" transform="translate(472,683)"/>
<path d="M0 0 C3.3 0 6.6 0 10 0 C10 0.99 10 1.98 10 3 C6.7 3 3.4 3 0 3 C0 2.01 0 1.02 0 0 Z " fill="#95BDE9" transform="translate(466,660)"/>
<path d="M0 0 C2 2 2 2 2.125 5.125 C2.08375 6.07375 2.0425 7.0225 2 8 C2.66 8 3.32 8 4 8 C4.66 9.98 5.32 11.96 6 14 C6.99 13.67 7.98 13.34 9 13 C9 13.66 9 14.32 9 15 C7.68 15 6.36 15 5 15 C5 14.34 5 13.68 5 13 C4.34 13 3.68 13 3 13 C-0.42857143 4.57142857 -0.42857143 4.57142857 0 0 Z " fill="#ABD2F3" transform="translate(542,595)"/>
<path d="M0 0 C0.33 0 0.66 0 1 0 C1.24091535 7.2274605 0.34495828 13.90294338 -1 21 C-1.33 21 -1.66 21 -2 21 C-2.20177072 13.64657821 -2.21211746 7.05112439 0 0 Z " fill="#C8E0F5" transform="translate(472,520)"/>
<path d="M0 0 C1.32 0 2.64 0 4 0 C4 0.66 4 1.32 4 2 C5.32 2 6.64 2 8 2 C8 2.66 8 3.32 8 4 C8.66 4 9.32 4 10 4 C10 4.99 10 5.98 10 7 C9.34 7 8.68 7 8 7 C8 6.34 8 5.68 8 5 C6.68 5 5.36 5 4 5 C4 4.34 4 3.68 4 3 C2.68 2.67 1.36 2.34 0 2 C0 1.34 0 0.68 0 0 Z " fill="#C6E0F5" transform="translate(566,209)"/>
<path d="M0 0 C0.33 0 0.66 0 1 0 C1.21432579 6.64409958 0.51233701 12.53205867 -1 19 C-1.33 19 -1.66 19 -2 19 C-2.22262303 12.2718373 -1.95021536 6.46008837 0 0 Z " fill="#B5D3F0" transform="translate(466,560)"/>
<path d="M0 0 C0.66 0 1.32 0 2 0 C1.38273804 5.67355671 0.72054048 11.33861055 0 17 C-0.33 17 -0.66 17 -1 17 C-1.02709444 14.91673869 -1.04643873 12.83337559 -1.0625 10.75 C-1.07410156 9.58984375 -1.08570313 8.4296875 -1.09765625 7.234375 C-1.01782092 4.59022872 -0.78643778 2.50173909 0 0 Z " fill="#A3CCF0" transform="translate(437,470)"/>
<path d="M0 0 C0.33 0.99 0.66 1.98 1 3 C0.67 3.66 0.34 4.32 0 5 C-3.0625 5.625 -3.0625 5.625 -6 6 C-6 5.01 -6 4.02 -6 3 C-5.34 3 -4.68 3 -4 3 C-4 2.34 -4 1.68 -4 1 C-2.68 0.67 -1.36 0.34 0 0 Z " fill="#88BBEC" transform="translate(490,678)"/>
<path d="M0 0 C0.33 0 0.66 0 1 0 C1.33 3.3 1.66 6.6 2 10 C1.34 10 0.68 10 0 10 C-0.33 11.32 -0.66 12.64 -1 14 C-1.33 13.67 -1.66 13.34 -2 13 C-1.9140625 11.07421875 -1.9140625 11.07421875 -1.625 8.6875 C-1.53476562 7.90761719 -1.44453125 7.12773437 -1.3515625 6.32421875 C-1.02512033 4.16607328 -0.56860512 2.10576641 0 0 Z " fill="#126CC6" transform="translate(579,470)"/>
<path d="M0 0 C0.99 0 1.98 0 3 0 C3.08333357 4.8333472 2.95261487 9.23692563 2 14 C1.67 14 1.34 14 1 14 C0.67 9.38 0.34 4.76 0 0 Z " fill="#D0E3F5" transform="translate(580,459)"/>
<path d="M0 0 C-0.33 0.66 -0.66 1.32 -1 2 C-1.78375 1.690625 -2.5675 1.38125 -3.375 1.0625 C-7.89851578 -0.26335807 -12.31431814 -0.64811085 -17 -1 C-17 -1.33 -17 -1.66 -17 -2 C-15.10688117 -2.25060425 -13.21022961 -2.47460633 -11.3125 -2.6875 C-9.72888672 -2.87892578 -9.72888672 -2.87892578 -8.11328125 -3.07421875 C-4.53073409 -2.98881298 -2.86936166 -2.070838 0 0 Z " fill="#4995E1" transform="translate(570,212)"/>
<path d="M0 0 C1.32 0 2.64 0 4 0 C4 0.66 4 1.32 4 2 C4.99 2 5.98 2 7 2 C7 3.32 7 4.64 7 6 C5.68 6 4.36 6 3 6 C2.87625 5.195625 2.7525 4.39125 2.625 3.5625 C2.315625 2.2940625 2.315625 2.2940625 2 1 C1.34 0.67 0.68 0.34 0 0 Z " fill="#7AB0E6" transform="translate(449,841)"/>
<path d="M0 0 C0 0.99 0 1.98 0 3 C-2.97 3 -5.94 3 -9 3 C-9 2.34 -9 1.68 -9 1 C-5.92677456 0.08941469 -3.19902639 -0.08886184 0 0 Z " fill="#DDEDFB" transform="translate(558,848)"/>
<path d="M0 0 C1.25127906 3.54667178 0.72285053 5.72253438 -0.4375 9.25 C-0.72496094 10.14203125 -1.01242187 11.0340625 -1.30859375 11.953125 C-1.53675781 12.62859375 -1.76492188 13.3040625 -2 14 C-2.33 14 -2.66 14 -3 14 C-2.88570603 12.22844346 -2.75816963 10.45773771 -2.625 8.6875 C-2.55539062 7.70136719 -2.48578125 6.71523438 -2.4140625 5.69921875 C-2 3 -2 3 0 0 Z " fill="#CFE4F6" transform="translate(586,411)"/>
<path d="M0 0 C0.99 0 1.98 0 3 0 C3 0.99 3 1.98 3 3 C2.01 3 1.02 3 0 3 C0 3.66 0 4.32 0 5 C-1.32 5 -2.64 5 -4 5 C-4 4.01 -4 3.02 -4 2 C-2.68 2 -1.36 2 0 2 C0 1.34 0 0.68 0 0 Z " fill="#ABD3F3" transform="translate(572,842)"/>
<path d="M0 0 C0.33 0.66 0.66 1.32 1 2 C0.0625 4.125 0.0625 4.125 -1 6 C-1.66 6 -2.32 6 -3 6 C-3 7.32 -3 8.64 -3 10 C-3.66 10 -4.32 10 -5 10 C-4.4454626 6.67277559 -3.75986957 3.8986087 -2 1 C-1.34 0.67 -0.68 0.34 0 0 Z " fill="#BED9F6" transform="translate(503,513)"/>
<path d="M0 0 C2.31 0 4.62 0 7 0 C7 0.99 7 1.98 7 3 C4.69 3 2.38 3 0 3 C0 2.01 0 1.02 0 0 Z " fill="#EBF6FD" transform="translate(498,371)"/>
<path d="M0 0 C1.65 0 3.3 0 5 0 C5 0.66 5 1.32 5 2 C5.66 2 6.32 2 7 2 C7 2.99 7 3.98 7 5 C6.34 5 5.68 5 5 5 C5 4.34 5 3.68 5 3 C3.35 3 1.7 3 0 3 C0 2.01 0 1.02 0 0 Z " fill="#CAE3F9" transform="translate(503,350)"/>
<path d="M0 0 C0.33 0 0.66 0 1 0 C1.4726477 8.19256018 1.4726477 8.19256018 -0.5 11.5625 C-0.995 12.036875 -1.49 12.51125 -2 13 C-1.48041715 8.62065881 -0.94324258 4.31196609 0 0 Z " fill="#B8D5F1" transform="translate(578,438)"/>
<path d="M0 0 C1.98 0 3.96 0 6 0 C6 0.99 6 1.98 6 3 C4.02 3 2.04 3 0 3 C0 2.01 0 1.02 0 0 Z " fill="#79B2E9" transform="translate(543,412)"/>
<path d="M0 0 C3.63 0 7.26 0 11 0 C11 0.99 11 1.98 11 3 C7.37 3 3.74 3 0 3 C0 2.01 0 1.02 0 0 Z " fill="#79B2E5" transform="translate(496,373)"/>
<path d="M0 0 C2.04795423 1.9626228 2.94976638 3.4277307 3.19921875 6.26953125 C3.18858877 8.51954383 3.12958525 10.75385562 3 13 C2.67 13 2.34 13 2 13 C-0.28571429 4.57142857 -0.28571429 4.57142857 0 0 Z " fill="#9BC8EE" transform="translate(608,273)"/>
<path d="M0 0 C0.33 0 0.66 0 1 0 C0.91253716 1.43861294 0.80434652 2.87597508 0.6875 4.3125 C0.62949219 5.11300781 0.57148438 5.91351563 0.51171875 6.73828125 C-0.08206694 9.36272334 -0.95780294 10.30820672 -3 12 C-2.40075776 7.80530429 -1.42500059 3.99000166 0 0 Z " fill="#CFE3F5" transform="translate(418,261)"/>
<path d="M0 0 C1.98 0 3.96 0 6 0 C6 0.99 6 1.98 6 3 C4.02 3 2.04 3 0 3 C0 2.01 0 1.02 0 0 Z " fill="#A4CEF1" transform="translate(560,846)"/>
<path d="M0 0 C1.65 0 3.3 0 5 0 C5.33 1.65 5.66 3.3 6 5 C5.67 4.34 5.34 3.68 5 3 C3.35 3 1.7 3 0 3 C0 2.01 0 1.02 0 0 Z " fill="#79B2E8" transform="translate(455,673)"/>
<path d="M0 0 C0.66 0 1.32 0 2 0 C2 0.66 2 1.32 2 2 C2.66 2 3.32 2 4 2 C4.33 3.65 4.66 5.3 5 7 C4.67 6.34 4.34 5.68 4 5 C3.01 5 2.02 5 1 5 C0.67 3.35 0.34 1.7 0 0 Z " fill="#BBD9F3" transform="translate(464,641)"/>
<path d="M0 0 C0.33 0 0.66 0 1 0 C1.36923077 6.52307692 1.36923077 6.52307692 -0.5 8.9375 C-0.995 9.288125 -1.49 9.63875 -2 10 C-1.54177532 6.53058454 -1.10868317 3.32604951 0 0 Z " fill="#C0DAF2" transform="translate(568,482)"/>
<path d="M0 0 C0.33 0.66 0.66 1.32 1 2 C2.65 2 4.3 2 6 2 C5.67 2.99 5.34 3.98 5 5 C3.68 5 2.36 5 1 5 C0.67 3.35 0.34 1.7 0 0 Z " fill="#B0D1EE" transform="translate(534,429)"/>
</svg>
